G75*
%MOIN*%
%OFA0B0*%
%FSLAX25Y25*%
%IPPOS*%
%LPD*%
%AMOC8*
5,1,8,0,0,1.08239X$1,22.5*
%
%ADD10C,0.06600*%
%ADD11C,0.00400*%
%ADD12C,0.00500*%
%ADD13C,0.01000*%
%ADD14C,0.00300*%
D10*
X0026577Y0158246D02*
X0026579Y0158339D01*
X0026585Y0158433D01*
X0026595Y0158526D01*
X0026609Y0158618D01*
X0026626Y0158710D01*
X0026648Y0158801D01*
X0026673Y0158891D01*
X0026703Y0158979D01*
X0026736Y0159067D01*
X0026772Y0159153D01*
X0026813Y0159237D01*
X0026856Y0159319D01*
X0026904Y0159400D01*
X0026954Y0159479D01*
X0027008Y0159555D01*
X0027066Y0159629D01*
X0027126Y0159700D01*
X0027189Y0159769D01*
X0027255Y0159835D01*
X0027324Y0159898D01*
X0027395Y0159958D01*
X0027469Y0160016D01*
X0027545Y0160070D01*
X0027624Y0160120D01*
X0027705Y0160168D01*
X0027787Y0160211D01*
X0027871Y0160252D01*
X0027957Y0160288D01*
X0028045Y0160321D01*
X0028133Y0160351D01*
X0028223Y0160376D01*
X0028314Y0160398D01*
X0028406Y0160415D01*
X0028498Y0160429D01*
X0028591Y0160439D01*
X0028685Y0160445D01*
X0028778Y0160447D01*
X0028871Y0160445D01*
X0028965Y0160439D01*
X0029058Y0160429D01*
X0029150Y0160415D01*
X0029242Y0160398D01*
X0029333Y0160376D01*
X0029423Y0160351D01*
X0029511Y0160321D01*
X0029599Y0160288D01*
X0029685Y0160252D01*
X0029769Y0160211D01*
X0029851Y0160168D01*
X0029932Y0160120D01*
X0030011Y0160070D01*
X0030087Y0160016D01*
X0030161Y0159958D01*
X0030232Y0159898D01*
X0030301Y0159835D01*
X0030367Y0159769D01*
X0030430Y0159700D01*
X0030490Y0159629D01*
X0030548Y0159555D01*
X0030602Y0159479D01*
X0030652Y0159400D01*
X0030700Y0159319D01*
X0030743Y0159237D01*
X0030784Y0159153D01*
X0030820Y0159067D01*
X0030853Y0158979D01*
X0030883Y0158891D01*
X0030908Y0158801D01*
X0030930Y0158710D01*
X0030947Y0158618D01*
X0030961Y0158526D01*
X0030971Y0158433D01*
X0030977Y0158339D01*
X0030979Y0158246D01*
X0030977Y0158153D01*
X0030971Y0158059D01*
X0030961Y0157966D01*
X0030947Y0157874D01*
X0030930Y0157782D01*
X0030908Y0157691D01*
X0030883Y0157601D01*
X0030853Y0157513D01*
X0030820Y0157425D01*
X0030784Y0157339D01*
X0030743Y0157255D01*
X0030700Y0157173D01*
X0030652Y0157092D01*
X0030602Y0157013D01*
X0030548Y0156937D01*
X0030490Y0156863D01*
X0030430Y0156792D01*
X0030367Y0156723D01*
X0030301Y0156657D01*
X0030232Y0156594D01*
X0030161Y0156534D01*
X0030087Y0156476D01*
X0030011Y0156422D01*
X0029932Y0156372D01*
X0029851Y0156324D01*
X0029769Y0156281D01*
X0029685Y0156240D01*
X0029599Y0156204D01*
X0029511Y0156171D01*
X0029423Y0156141D01*
X0029333Y0156116D01*
X0029242Y0156094D01*
X0029150Y0156077D01*
X0029058Y0156063D01*
X0028965Y0156053D01*
X0028871Y0156047D01*
X0028778Y0156045D01*
X0028685Y0156047D01*
X0028591Y0156053D01*
X0028498Y0156063D01*
X0028406Y0156077D01*
X0028314Y0156094D01*
X0028223Y0156116D01*
X0028133Y0156141D01*
X0028045Y0156171D01*
X0027957Y0156204D01*
X0027871Y0156240D01*
X0027787Y0156281D01*
X0027705Y0156324D01*
X0027624Y0156372D01*
X0027545Y0156422D01*
X0027469Y0156476D01*
X0027395Y0156534D01*
X0027324Y0156594D01*
X0027255Y0156657D01*
X0027189Y0156723D01*
X0027126Y0156792D01*
X0027066Y0156863D01*
X0027008Y0156937D01*
X0026954Y0157013D01*
X0026904Y0157092D01*
X0026856Y0157173D01*
X0026813Y0157255D01*
X0026772Y0157339D01*
X0026736Y0157425D01*
X0026703Y0157513D01*
X0026673Y0157601D01*
X0026648Y0157691D01*
X0026626Y0157782D01*
X0026609Y0157874D01*
X0026595Y0157966D01*
X0026585Y0158059D01*
X0026579Y0158153D01*
X0026577Y0158246D01*
D11*
X0039950Y0159353D02*
X0040801Y0158502D01*
X0042502Y0158502D01*
X0043353Y0157651D01*
X0043353Y0156801D01*
X0042502Y0155950D01*
X0040801Y0155950D01*
X0039950Y0156801D01*
X0039950Y0159353D02*
X0039950Y0160204D01*
X0040801Y0161054D01*
X0042502Y0161054D01*
X0043353Y0160204D01*
X0045014Y0161054D02*
X0048417Y0161054D01*
X0050079Y0161054D02*
X0051780Y0159353D01*
X0053482Y0161054D01*
X0053482Y0155950D01*
X0055143Y0156801D02*
X0055994Y0155950D01*
X0057695Y0155950D01*
X0058546Y0156801D01*
X0058546Y0157651D01*
X0057695Y0158502D01*
X0056844Y0158502D01*
X0057695Y0158502D02*
X0058546Y0159353D01*
X0058546Y0160204D01*
X0057695Y0161054D01*
X0055994Y0161054D01*
X0055143Y0160204D01*
X0060207Y0160204D02*
X0061058Y0161054D01*
X0062759Y0161054D01*
X0063610Y0160204D01*
X0063610Y0159353D01*
X0060207Y0155950D01*
X0063610Y0155950D01*
X0065272Y0155950D02*
X0065272Y0161054D01*
X0068675Y0161054D01*
X0070336Y0158502D02*
X0073739Y0158502D01*
X0075400Y0156801D02*
X0078803Y0160204D01*
X0078803Y0156801D01*
X0077952Y0155950D01*
X0076251Y0155950D01*
X0075400Y0156801D01*
X0075400Y0160204D01*
X0076251Y0161054D01*
X0077952Y0161054D01*
X0078803Y0160204D01*
X0080465Y0161054D02*
X0080465Y0158502D01*
X0082166Y0159353D01*
X0083017Y0159353D01*
X0083867Y0158502D01*
X0083867Y0156801D01*
X0083017Y0155950D01*
X0081315Y0155950D01*
X0080465Y0156801D01*
X0080465Y0161054D02*
X0083867Y0161054D01*
X0090593Y0160204D02*
X0090593Y0156801D01*
X0091444Y0155950D01*
X0093145Y0155950D01*
X0093996Y0156801D01*
X0095658Y0155950D02*
X0095658Y0159353D01*
X0097359Y0161054D01*
X0099060Y0159353D01*
X0099060Y0155950D01*
X0100722Y0155950D02*
X0100722Y0161054D01*
X0103274Y0161054D01*
X0104125Y0160204D01*
X0104125Y0158502D01*
X0103274Y0157651D01*
X0100722Y0157651D01*
X0102423Y0157651D02*
X0104125Y0155950D01*
X0105786Y0155950D02*
X0108338Y0155950D01*
X0109189Y0156801D01*
X0109189Y0160204D01*
X0108338Y0161054D01*
X0105786Y0161054D01*
X0105786Y0155950D01*
X0099060Y0158502D02*
X0095658Y0158502D01*
X0093996Y0160204D02*
X0093145Y0161054D01*
X0091444Y0161054D01*
X0090593Y0160204D01*
X0072888Y0161054D02*
X0072888Y0155950D01*
X0070336Y0158502D02*
X0072888Y0161054D01*
X0066973Y0158502D02*
X0065272Y0158502D01*
X0050079Y0155950D02*
X0050079Y0161054D01*
X0046716Y0161054D02*
X0046716Y0155950D01*
D12*
X0073835Y0073835D02*
X0113205Y0073835D01*
X0113205Y0113205D01*
X0078394Y0113205D01*
X0073835Y0108645D01*
X0073835Y0073835D01*
D13*
X0072020Y0113520D02*
X0072022Y0113597D01*
X0072028Y0113674D01*
X0072038Y0113751D01*
X0072052Y0113827D01*
X0072069Y0113902D01*
X0072091Y0113976D01*
X0072116Y0114049D01*
X0072146Y0114121D01*
X0072178Y0114191D01*
X0072215Y0114259D01*
X0072254Y0114325D01*
X0072297Y0114389D01*
X0072344Y0114451D01*
X0072393Y0114510D01*
X0072446Y0114567D01*
X0072501Y0114621D01*
X0072559Y0114672D01*
X0072620Y0114720D01*
X0072683Y0114765D01*
X0072748Y0114806D01*
X0072815Y0114844D01*
X0072884Y0114879D01*
X0072955Y0114909D01*
X0073027Y0114937D01*
X0073101Y0114960D01*
X0073175Y0114980D01*
X0073251Y0114996D01*
X0073327Y0115008D01*
X0073404Y0115016D01*
X0073481Y0115020D01*
X0073559Y0115020D01*
X0073636Y0115016D01*
X0073713Y0115008D01*
X0073789Y0114996D01*
X0073865Y0114980D01*
X0073939Y0114960D01*
X0074013Y0114937D01*
X0074085Y0114909D01*
X0074156Y0114879D01*
X0074225Y0114844D01*
X0074292Y0114806D01*
X0074357Y0114765D01*
X0074420Y0114720D01*
X0074481Y0114672D01*
X0074539Y0114621D01*
X0074594Y0114567D01*
X0074647Y0114510D01*
X0074696Y0114451D01*
X0074743Y0114389D01*
X0074786Y0114325D01*
X0074825Y0114259D01*
X0074862Y0114191D01*
X0074894Y0114121D01*
X0074924Y0114049D01*
X0074949Y0113976D01*
X0074971Y0113902D01*
X0074988Y0113827D01*
X0075002Y0113751D01*
X0075012Y0113674D01*
X0075018Y0113597D01*
X0075020Y0113520D01*
X0075018Y0113443D01*
X0075012Y0113366D01*
X0075002Y0113289D01*
X0074988Y0113213D01*
X0074971Y0113138D01*
X0074949Y0113064D01*
X0074924Y0112991D01*
X0074894Y0112919D01*
X0074862Y0112849D01*
X0074825Y0112781D01*
X0074786Y0112715D01*
X0074743Y0112651D01*
X0074696Y0112589D01*
X0074647Y0112530D01*
X0074594Y0112473D01*
X0074539Y0112419D01*
X0074481Y0112368D01*
X0074420Y0112320D01*
X0074357Y0112275D01*
X0074292Y0112234D01*
X0074225Y0112196D01*
X0074156Y0112161D01*
X0074085Y0112131D01*
X0074013Y0112103D01*
X0073939Y0112080D01*
X0073865Y0112060D01*
X0073789Y0112044D01*
X0073713Y0112032D01*
X0073636Y0112024D01*
X0073559Y0112020D01*
X0073481Y0112020D01*
X0073404Y0112024D01*
X0073327Y0112032D01*
X0073251Y0112044D01*
X0073175Y0112060D01*
X0073101Y0112080D01*
X0073027Y0112103D01*
X0072955Y0112131D01*
X0072884Y0112161D01*
X0072815Y0112196D01*
X0072748Y0112234D01*
X0072683Y0112275D01*
X0072620Y0112320D01*
X0072559Y0112368D01*
X0072501Y0112419D01*
X0072446Y0112473D01*
X0072393Y0112530D01*
X0072344Y0112589D01*
X0072297Y0112651D01*
X0072254Y0112715D01*
X0072215Y0112781D01*
X0072178Y0112849D01*
X0072146Y0112919D01*
X0072116Y0112991D01*
X0072091Y0113064D01*
X0072069Y0113138D01*
X0072052Y0113213D01*
X0072038Y0113289D01*
X0072028Y0113366D01*
X0072022Y0113443D01*
X0072020Y0113520D01*
D14*
X0079074Y0094622D02*
X0078707Y0094255D01*
X0078707Y0093888D01*
X0079074Y0093521D01*
X0079808Y0093521D01*
X0080175Y0093154D01*
X0080175Y0092787D01*
X0079808Y0092420D01*
X0079074Y0092420D01*
X0078707Y0092787D01*
X0079074Y0094622D02*
X0079808Y0094622D01*
X0080175Y0094255D01*
X0081009Y0094622D02*
X0082477Y0094622D01*
X0081743Y0094622D02*
X0081743Y0092420D01*
X0083311Y0092420D02*
X0083311Y0094622D01*
X0084045Y0093888D01*
X0084779Y0094622D01*
X0084779Y0092420D01*
X0085613Y0092787D02*
X0085980Y0092420D01*
X0086714Y0092420D01*
X0087081Y0092787D01*
X0087081Y0093154D01*
X0086714Y0093521D01*
X0086347Y0093521D01*
X0086714Y0093521D02*
X0087081Y0093888D01*
X0087081Y0094255D01*
X0086714Y0094622D01*
X0085980Y0094622D01*
X0085613Y0094255D01*
X0087915Y0094255D02*
X0088282Y0094622D01*
X0089016Y0094622D01*
X0089383Y0094255D01*
X0089383Y0093888D01*
X0087915Y0092420D01*
X0089383Y0092420D01*
X0090217Y0092420D02*
X0090217Y0094622D01*
X0091685Y0094622D01*
X0090951Y0093521D02*
X0090217Y0093521D01*
X0092519Y0093521D02*
X0093987Y0093521D01*
X0094821Y0094255D02*
X0095188Y0094622D01*
X0095922Y0094622D01*
X0096289Y0094255D01*
X0094821Y0092787D01*
X0095188Y0092420D01*
X0095922Y0092420D01*
X0096289Y0092787D01*
X0096289Y0094255D01*
X0097123Y0094622D02*
X0097123Y0093521D01*
X0097857Y0093888D01*
X0098223Y0093888D01*
X0098590Y0093521D01*
X0098590Y0092787D01*
X0098223Y0092420D01*
X0097490Y0092420D01*
X0097123Y0092787D01*
X0097123Y0094622D02*
X0098590Y0094622D01*
X0099425Y0094622D02*
X0099425Y0092420D01*
X0099425Y0093154D02*
X0100525Y0093154D01*
X0100892Y0093521D01*
X0100892Y0094255D01*
X0100525Y0094622D01*
X0099425Y0094622D01*
X0100158Y0093154D02*
X0100892Y0092420D01*
X0101726Y0092787D02*
X0101726Y0094255D01*
X0102093Y0094622D01*
X0102827Y0094622D01*
X0103194Y0094255D01*
X0103194Y0093521D02*
X0102460Y0093521D01*
X0103194Y0093521D02*
X0103194Y0092787D01*
X0102827Y0092420D01*
X0102093Y0092420D01*
X0101726Y0092787D01*
X0104028Y0094622D02*
X0105496Y0094622D01*
X0104762Y0094622D02*
X0104762Y0092420D01*
X0106330Y0092787D02*
X0106697Y0092420D01*
X0107431Y0092420D01*
X0107798Y0092787D01*
X0107798Y0093154D01*
X0107431Y0093521D01*
X0106330Y0093521D01*
X0106330Y0092787D01*
X0106330Y0093521D02*
X0107064Y0094255D01*
X0107798Y0094622D01*
X0094821Y0094255D02*
X0094821Y0092787D01*
X0093620Y0092420D02*
X0093620Y0094622D01*
X0092519Y0093521D01*
M02*
