%
M48
M72
T01C0.0400
%
T01
X691Y1852
X691Y2852
X691Y3852
X691Y4852
X691Y5852
X691Y6852
X691Y7852
X691Y8852
X691Y9852
X691Y10852
X691Y11852
X691Y12852
X691Y13852
X691Y14852
X691Y15852
X691Y16852
X1852Y18013
X2852Y18013
X3852Y18013
X4852Y18013
X5852Y18013
X6852Y18013
X7852Y18013
X8852Y18013
X9852Y18013
X10852Y18013
X11852Y18013
X12852Y18013
X13852Y18013
X14852Y18013
X15852Y18013
X16852Y18013
X18013Y16852
X18013Y15852
X18013Y14852
X18013Y13852
X18013Y12852
X18013Y11852
X18013Y10852
X18013Y9852
X18013Y8852
X18013Y7852
X18013Y6852
X18013Y5852
X18013Y4852
X18013Y3852
X18013Y2852
X18013Y1852
X16852Y691
X15852Y691
X14852Y691
X13852Y691
X12852Y691
X11852Y691
X10852Y691
X9852Y691
X8852Y691
X7852Y691
X6852Y691
X5852Y691
X4852Y691
X3852Y691
X2852Y691
X1852Y691
M30
