G75*
%MOIN*%
%OFA0B0*%
%FSLAX25Y25*%
%IPPOS*%
%LPD*%
%AMOC8*
5,1,8,0,0,1.08239X$1,22.5*
%
%ADD10R,0.08000X0.08000*%
%ADD11C,0.08000*%
D10*
X0006906Y0168520D03*
D11*
X0006906Y0018520D03*
X0006906Y0028520D03*
X0006906Y0038520D03*
X0006906Y0048520D03*
X0006906Y0058520D03*
X0006906Y0068520D03*
X0006906Y0078520D03*
X0006906Y0088520D03*
X0006906Y0098520D03*
X0006906Y0108520D03*
X0006906Y0118520D03*
X0006906Y0128520D03*
X0006906Y0138520D03*
X0006906Y0148520D03*
X0006906Y0158520D03*
X0018520Y0180134D03*
X0028520Y0180134D03*
X0038520Y0180134D03*
X0048520Y0180134D03*
X0058520Y0180134D03*
X0068520Y0180134D03*
X0078520Y0180134D03*
X0088520Y0180134D03*
X0098520Y0180134D03*
X0108520Y0180134D03*
X0118520Y0180134D03*
X0128520Y0180134D03*
X0138520Y0180134D03*
X0148520Y0180134D03*
X0158520Y0180134D03*
X0168520Y0180134D03*
X0180134Y0168520D03*
X0180134Y0158520D03*
X0180134Y0148520D03*
X0180134Y0138520D03*
X0180134Y0128520D03*
X0180134Y0118520D03*
X0180134Y0108520D03*
X0180134Y0098520D03*
X0180134Y0088520D03*
X0180134Y0078520D03*
X0180134Y0068520D03*
X0180134Y0058520D03*
X0180134Y0048520D03*
X0180134Y0038520D03*
X0180134Y0028520D03*
X0180134Y0018520D03*
X0168520Y0006906D03*
X0158520Y0006906D03*
X0148520Y0006906D03*
X0138520Y0006906D03*
X0128520Y0006906D03*
X0118520Y0006906D03*
X0108520Y0006906D03*
X0098520Y0006906D03*
X0088520Y0006906D03*
X0078520Y0006906D03*
X0068520Y0006906D03*
X0058520Y0006906D03*
X0048520Y0006906D03*
X0038520Y0006906D03*
X0028520Y0006906D03*
X0018520Y0006906D03*
M02*
