G75*
%MOIN*%
%OFA0B0*%
%FSLAX25Y25*%
%IPPOS*%
%LPD*%
%AMOC8*
5,1,8,0,0,1.08239X$1,22.5*
%
%ADD10R,0.05906X0.01575*%
%ADD11R,0.05906X0.01102*%
%ADD12R,0.01575X0.05906*%
%ADD13R,0.01102X0.05906*%
D10*
X0070291Y0078520D03*
X0070291Y0108520D03*
X0116748Y0108520D03*
X0116748Y0078520D03*
D11*
X0116748Y0080724D03*
X0116748Y0082693D03*
X0116748Y0084661D03*
X0116748Y0086630D03*
X0116748Y0088598D03*
X0116748Y0090567D03*
X0116748Y0092535D03*
X0116748Y0094504D03*
X0116748Y0096472D03*
X0116748Y0098441D03*
X0116748Y0100409D03*
X0116748Y0102378D03*
X0116748Y0104346D03*
X0116748Y0106315D03*
X0070291Y0106315D03*
X0070291Y0104346D03*
X0070291Y0102378D03*
X0070291Y0100409D03*
X0070291Y0098441D03*
X0070291Y0096472D03*
X0070291Y0094504D03*
X0070291Y0092535D03*
X0070291Y0090567D03*
X0070291Y0088598D03*
X0070291Y0086630D03*
X0070291Y0084661D03*
X0070291Y0082693D03*
X0070291Y0080724D03*
D12*
X0078520Y0070291D03*
X0108520Y0070291D03*
X0108520Y0116748D03*
X0078520Y0116748D03*
D13*
X0080724Y0116748D03*
X0082693Y0116748D03*
X0084661Y0116748D03*
X0086630Y0116748D03*
X0088598Y0116748D03*
X0090567Y0116748D03*
X0092535Y0116748D03*
X0094504Y0116748D03*
X0096472Y0116748D03*
X0098441Y0116748D03*
X0100409Y0116748D03*
X0102378Y0116748D03*
X0104346Y0116748D03*
X0106315Y0116748D03*
X0106315Y0070291D03*
X0104346Y0070291D03*
X0102378Y0070291D03*
X0100409Y0070291D03*
X0098441Y0070291D03*
X0096472Y0070291D03*
X0094504Y0070291D03*
X0092535Y0070291D03*
X0090567Y0070291D03*
X0088598Y0070291D03*
X0086630Y0070291D03*
X0084661Y0070291D03*
X0082693Y0070291D03*
X0080724Y0070291D03*
M02*
