G75*
%MOIN*%
%OFA0B0*%
%FSLAX25Y25*%
%IPPOS*%
%LPD*%
%AMOC8*
5,1,8,0,0,1.08239X$1,22.5*
%
%ADD10R,0.07400X0.07400*%
%ADD11C,0.07400*%
%ADD12R,0.05906X0.01575*%
%ADD13R,0.05906X0.01102*%
%ADD14R,0.01575X0.05906*%
%ADD15R,0.01102X0.05906*%
%ADD16C,0.01000*%
D10*
X0006906Y0168520D03*
D11*
X0006906Y0018520D03*
X0006906Y0028520D03*
X0006906Y0038520D03*
X0006906Y0048520D03*
X0006906Y0058520D03*
X0006906Y0068520D03*
X0006906Y0078520D03*
X0006906Y0088520D03*
X0006906Y0098520D03*
X0006906Y0108520D03*
X0006906Y0118520D03*
X0006906Y0128520D03*
X0006906Y0138520D03*
X0006906Y0148520D03*
X0006906Y0158520D03*
X0018520Y0180134D03*
X0028520Y0180134D03*
X0038520Y0180134D03*
X0048520Y0180134D03*
X0058520Y0180134D03*
X0068520Y0180134D03*
X0078520Y0180134D03*
X0088520Y0180134D03*
X0098520Y0180134D03*
X0108520Y0180134D03*
X0118520Y0180134D03*
X0128520Y0180134D03*
X0138520Y0180134D03*
X0148520Y0180134D03*
X0158520Y0180134D03*
X0168520Y0180134D03*
X0180134Y0168520D03*
X0180134Y0158520D03*
X0180134Y0148520D03*
X0180134Y0138520D03*
X0180134Y0128520D03*
X0180134Y0118520D03*
X0180134Y0108520D03*
X0180134Y0098520D03*
X0180134Y0088520D03*
X0180134Y0078520D03*
X0180134Y0068520D03*
X0180134Y0058520D03*
X0180134Y0048520D03*
X0180134Y0038520D03*
X0180134Y0028520D03*
X0180134Y0018520D03*
X0168520Y0006906D03*
X0158520Y0006906D03*
X0148520Y0006906D03*
X0138520Y0006906D03*
X0128520Y0006906D03*
X0118520Y0006906D03*
X0108520Y0006906D03*
X0098520Y0006906D03*
X0088520Y0006906D03*
X0078520Y0006906D03*
X0068520Y0006906D03*
X0058520Y0006906D03*
X0048520Y0006906D03*
X0038520Y0006906D03*
X0028520Y0006906D03*
X0018520Y0006906D03*
D12*
X0070291Y0078520D03*
X0070291Y0108520D03*
X0116748Y0108520D03*
X0116748Y0078520D03*
D13*
X0116748Y0080724D03*
X0116748Y0082693D03*
X0116748Y0084661D03*
X0116748Y0086630D03*
X0116748Y0088598D03*
X0116748Y0090567D03*
X0116748Y0092535D03*
X0116748Y0094504D03*
X0116748Y0096472D03*
X0116748Y0098441D03*
X0116748Y0100409D03*
X0116748Y0102378D03*
X0116748Y0104346D03*
X0116748Y0106315D03*
X0070291Y0106315D03*
X0070291Y0104346D03*
X0070291Y0102378D03*
X0070291Y0100409D03*
X0070291Y0098441D03*
X0070291Y0096472D03*
X0070291Y0094504D03*
X0070291Y0092535D03*
X0070291Y0090567D03*
X0070291Y0088598D03*
X0070291Y0086630D03*
X0070291Y0084661D03*
X0070291Y0082693D03*
X0070291Y0080724D03*
D14*
X0078520Y0070291D03*
X0108520Y0070291D03*
X0108520Y0116748D03*
X0078520Y0116748D03*
D15*
X0080724Y0116748D03*
X0082693Y0116748D03*
X0084661Y0116748D03*
X0086630Y0116748D03*
X0088598Y0116748D03*
X0090567Y0116748D03*
X0092535Y0116748D03*
X0094504Y0116748D03*
X0096472Y0116748D03*
X0098441Y0116748D03*
X0100409Y0116748D03*
X0102378Y0116748D03*
X0104346Y0116748D03*
X0106315Y0116748D03*
X0106315Y0070291D03*
X0104346Y0070291D03*
X0102378Y0070291D03*
X0100409Y0070291D03*
X0098441Y0070291D03*
X0096472Y0070291D03*
X0094504Y0070291D03*
X0092535Y0070291D03*
X0090567Y0070291D03*
X0088598Y0070291D03*
X0086630Y0070291D03*
X0084661Y0070291D03*
X0082693Y0070291D03*
X0080724Y0070291D03*
D16*
X0080724Y0062372D01*
X0076213Y0064599D02*
X0018520Y0006906D01*
X0028520Y0006906D02*
X0078418Y0056804D01*
X0082693Y0054340D02*
X0082691Y0054153D01*
X0082684Y0053965D01*
X0082673Y0053778D01*
X0082657Y0053592D01*
X0082637Y0053405D01*
X0082613Y0053219D01*
X0082584Y0053034D01*
X0082551Y0052850D01*
X0082513Y0052666D01*
X0082471Y0052484D01*
X0082425Y0052302D01*
X0082374Y0052122D01*
X0082319Y0051942D01*
X0082260Y0051765D01*
X0082197Y0051588D01*
X0082129Y0051414D01*
X0082057Y0051240D01*
X0081981Y0051069D01*
X0081902Y0050899D01*
X0081818Y0050732D01*
X0081730Y0050566D01*
X0081638Y0050403D01*
X0081542Y0050242D01*
X0081443Y0050083D01*
X0081340Y0049927D01*
X0081233Y0049773D01*
X0081122Y0049621D01*
X0081008Y0049473D01*
X0080891Y0049327D01*
X0080770Y0049184D01*
X0080645Y0049043D01*
X0080518Y0048906D01*
X0080387Y0048772D01*
X0038520Y0006906D01*
X0048520Y0006906D02*
X0082355Y0040741D01*
X0086630Y0038277D02*
X0086628Y0038090D01*
X0086621Y0037902D01*
X0086610Y0037715D01*
X0086594Y0037529D01*
X0086574Y0037342D01*
X0086550Y0037156D01*
X0086521Y0036971D01*
X0086488Y0036787D01*
X0086450Y0036603D01*
X0086408Y0036421D01*
X0086362Y0036239D01*
X0086311Y0036059D01*
X0086256Y0035879D01*
X0086197Y0035702D01*
X0086134Y0035525D01*
X0086066Y0035351D01*
X0085994Y0035177D01*
X0085918Y0035006D01*
X0085839Y0034836D01*
X0085755Y0034669D01*
X0085667Y0034503D01*
X0085575Y0034340D01*
X0085479Y0034179D01*
X0085380Y0034020D01*
X0085277Y0033864D01*
X0085170Y0033710D01*
X0085059Y0033558D01*
X0084945Y0033410D01*
X0084828Y0033264D01*
X0084707Y0033121D01*
X0084582Y0032980D01*
X0084455Y0032843D01*
X0084324Y0032709D01*
X0058520Y0006906D01*
X0068520Y0006906D02*
X0086292Y0024678D01*
X0090567Y0022214D02*
X0090565Y0022027D01*
X0090558Y0021839D01*
X0090547Y0021652D01*
X0090531Y0021466D01*
X0090511Y0021279D01*
X0090487Y0021093D01*
X0090458Y0020908D01*
X0090425Y0020724D01*
X0090387Y0020540D01*
X0090345Y0020358D01*
X0090299Y0020176D01*
X0090248Y0019996D01*
X0090193Y0019816D01*
X0090134Y0019639D01*
X0090071Y0019462D01*
X0090003Y0019288D01*
X0089931Y0019114D01*
X0089855Y0018943D01*
X0089776Y0018773D01*
X0089692Y0018606D01*
X0089604Y0018440D01*
X0089512Y0018277D01*
X0089416Y0018116D01*
X0089317Y0017957D01*
X0089214Y0017801D01*
X0089107Y0017647D01*
X0088996Y0017495D01*
X0088882Y0017347D01*
X0088765Y0017201D01*
X0088644Y0017058D01*
X0088519Y0016917D01*
X0088392Y0016780D01*
X0088261Y0016646D01*
X0088261Y0016647D02*
X0078520Y0006906D01*
X0090229Y0008615D02*
X0090360Y0008749D01*
X0090487Y0008886D01*
X0090612Y0009027D01*
X0090733Y0009170D01*
X0090850Y0009316D01*
X0090964Y0009464D01*
X0091075Y0009616D01*
X0091182Y0009770D01*
X0091285Y0009926D01*
X0091384Y0010085D01*
X0091480Y0010246D01*
X0091572Y0010409D01*
X0091660Y0010575D01*
X0091744Y0010742D01*
X0091823Y0010912D01*
X0091899Y0011083D01*
X0091971Y0011257D01*
X0092039Y0011431D01*
X0092102Y0011608D01*
X0092161Y0011785D01*
X0092216Y0011965D01*
X0092267Y0012145D01*
X0092313Y0012327D01*
X0092355Y0012509D01*
X0092393Y0012693D01*
X0092426Y0012877D01*
X0092455Y0013062D01*
X0092479Y0013248D01*
X0092499Y0013435D01*
X0092515Y0013621D01*
X0092526Y0013808D01*
X0092533Y0013996D01*
X0092535Y0014183D01*
X0092535Y0070291D01*
X0090567Y0070291D02*
X0090567Y0022214D01*
X0096472Y0022214D02*
X0096472Y0070291D01*
X0094504Y0070291D02*
X0094504Y0014183D01*
X0098779Y0016647D02*
X0108520Y0006906D01*
X0096810Y0008615D02*
X0096679Y0008749D01*
X0096552Y0008886D01*
X0096427Y0009027D01*
X0096306Y0009170D01*
X0096189Y0009316D01*
X0096075Y0009464D01*
X0095964Y0009616D01*
X0095857Y0009770D01*
X0095754Y0009926D01*
X0095655Y0010085D01*
X0095559Y0010246D01*
X0095467Y0010409D01*
X0095379Y0010575D01*
X0095295Y0010742D01*
X0095216Y0010912D01*
X0095140Y0011083D01*
X0095068Y0011257D01*
X0095000Y0011431D01*
X0094937Y0011608D01*
X0094878Y0011785D01*
X0094823Y0011965D01*
X0094772Y0012145D01*
X0094726Y0012327D01*
X0094684Y0012509D01*
X0094646Y0012693D01*
X0094613Y0012877D01*
X0094584Y0013062D01*
X0094560Y0013248D01*
X0094540Y0013435D01*
X0094524Y0013621D01*
X0094513Y0013808D01*
X0094506Y0013996D01*
X0094504Y0014183D01*
X0096810Y0008615D02*
X0098520Y0006906D01*
X0090229Y0008615D02*
X0088520Y0006906D01*
X0098778Y0016646D02*
X0098647Y0016780D01*
X0098520Y0016917D01*
X0098395Y0017058D01*
X0098274Y0017201D01*
X0098157Y0017347D01*
X0098043Y0017495D01*
X0097932Y0017647D01*
X0097825Y0017801D01*
X0097722Y0017957D01*
X0097623Y0018116D01*
X0097527Y0018277D01*
X0097435Y0018440D01*
X0097347Y0018606D01*
X0097263Y0018773D01*
X0097184Y0018943D01*
X0097108Y0019114D01*
X0097036Y0019288D01*
X0096968Y0019462D01*
X0096905Y0019639D01*
X0096846Y0019816D01*
X0096791Y0019996D01*
X0096740Y0020176D01*
X0096694Y0020358D01*
X0096652Y0020540D01*
X0096614Y0020724D01*
X0096581Y0020908D01*
X0096552Y0021093D01*
X0096528Y0021279D01*
X0096508Y0021466D01*
X0096492Y0021652D01*
X0096481Y0021839D01*
X0096474Y0022027D01*
X0096472Y0022214D01*
X0100747Y0024678D02*
X0118520Y0006906D01*
X0128520Y0006906D02*
X0102716Y0032709D01*
X0098441Y0030246D02*
X0098443Y0030059D01*
X0098450Y0029871D01*
X0098461Y0029684D01*
X0098477Y0029498D01*
X0098497Y0029311D01*
X0098521Y0029125D01*
X0098550Y0028940D01*
X0098583Y0028756D01*
X0098621Y0028572D01*
X0098663Y0028390D01*
X0098709Y0028208D01*
X0098760Y0028028D01*
X0098815Y0027848D01*
X0098874Y0027671D01*
X0098937Y0027494D01*
X0099005Y0027320D01*
X0099077Y0027146D01*
X0099153Y0026975D01*
X0099232Y0026805D01*
X0099316Y0026638D01*
X0099404Y0026472D01*
X0099496Y0026309D01*
X0099592Y0026148D01*
X0099691Y0025989D01*
X0099794Y0025833D01*
X0099901Y0025679D01*
X0100012Y0025527D01*
X0100126Y0025379D01*
X0100243Y0025233D01*
X0100364Y0025090D01*
X0100489Y0024949D01*
X0100616Y0024812D01*
X0100747Y0024678D01*
X0098441Y0030246D02*
X0098441Y0070291D01*
X0100409Y0070291D02*
X0100409Y0038277D01*
X0104684Y0040741D02*
X0138520Y0006906D01*
X0148520Y0006906D02*
X0106653Y0048772D01*
X0102378Y0046309D02*
X0102380Y0046122D01*
X0102387Y0045934D01*
X0102398Y0045747D01*
X0102414Y0045561D01*
X0102434Y0045374D01*
X0102458Y0045188D01*
X0102487Y0045003D01*
X0102520Y0044819D01*
X0102558Y0044635D01*
X0102600Y0044453D01*
X0102646Y0044271D01*
X0102697Y0044091D01*
X0102752Y0043911D01*
X0102811Y0043734D01*
X0102874Y0043557D01*
X0102942Y0043383D01*
X0103014Y0043209D01*
X0103090Y0043038D01*
X0103169Y0042868D01*
X0103253Y0042701D01*
X0103341Y0042535D01*
X0103433Y0042372D01*
X0103529Y0042211D01*
X0103628Y0042052D01*
X0103731Y0041896D01*
X0103838Y0041742D01*
X0103949Y0041590D01*
X0104063Y0041442D01*
X0104180Y0041296D01*
X0104301Y0041153D01*
X0104426Y0041012D01*
X0104553Y0040875D01*
X0104684Y0040741D01*
X0100409Y0038277D02*
X0100411Y0038090D01*
X0100418Y0037902D01*
X0100429Y0037715D01*
X0100445Y0037529D01*
X0100465Y0037342D01*
X0100489Y0037156D01*
X0100518Y0036971D01*
X0100551Y0036787D01*
X0100589Y0036603D01*
X0100631Y0036421D01*
X0100677Y0036239D01*
X0100728Y0036059D01*
X0100783Y0035879D01*
X0100842Y0035702D01*
X0100905Y0035525D01*
X0100973Y0035351D01*
X0101045Y0035177D01*
X0101121Y0035006D01*
X0101200Y0034836D01*
X0101284Y0034669D01*
X0101372Y0034503D01*
X0101464Y0034340D01*
X0101560Y0034179D01*
X0101659Y0034020D01*
X0101762Y0033864D01*
X0101869Y0033710D01*
X0101980Y0033558D01*
X0102094Y0033410D01*
X0102211Y0033264D01*
X0102332Y0033121D01*
X0102457Y0032980D01*
X0102584Y0032843D01*
X0102715Y0032709D01*
X0102378Y0046309D02*
X0102378Y0070291D01*
X0104346Y0070291D02*
X0104346Y0054340D01*
X0108621Y0056804D02*
X0158520Y0006906D01*
X0168520Y0006906D02*
X0110826Y0064599D01*
X0106315Y0062372D02*
X0106317Y0062185D01*
X0106324Y0061997D01*
X0106335Y0061810D01*
X0106351Y0061624D01*
X0106371Y0061437D01*
X0106395Y0061251D01*
X0106424Y0061066D01*
X0106457Y0060882D01*
X0106495Y0060698D01*
X0106537Y0060516D01*
X0106583Y0060334D01*
X0106634Y0060154D01*
X0106689Y0059974D01*
X0106748Y0059797D01*
X0106811Y0059620D01*
X0106879Y0059446D01*
X0106951Y0059272D01*
X0107027Y0059101D01*
X0107106Y0058931D01*
X0107190Y0058764D01*
X0107278Y0058598D01*
X0107370Y0058435D01*
X0107466Y0058274D01*
X0107565Y0058115D01*
X0107668Y0057959D01*
X0107775Y0057805D01*
X0107886Y0057653D01*
X0108000Y0057505D01*
X0108117Y0057359D01*
X0108238Y0057216D01*
X0108363Y0057075D01*
X0108490Y0056938D01*
X0108621Y0056804D01*
X0104346Y0054340D02*
X0104348Y0054153D01*
X0104355Y0053965D01*
X0104366Y0053778D01*
X0104382Y0053592D01*
X0104402Y0053405D01*
X0104426Y0053219D01*
X0104455Y0053034D01*
X0104488Y0052850D01*
X0104526Y0052666D01*
X0104568Y0052484D01*
X0104614Y0052302D01*
X0104665Y0052122D01*
X0104720Y0051942D01*
X0104779Y0051765D01*
X0104842Y0051588D01*
X0104910Y0051414D01*
X0104982Y0051240D01*
X0105058Y0051069D01*
X0105137Y0050899D01*
X0105221Y0050732D01*
X0105309Y0050566D01*
X0105401Y0050403D01*
X0105497Y0050242D01*
X0105596Y0050083D01*
X0105699Y0049927D01*
X0105806Y0049773D01*
X0105917Y0049621D01*
X0106031Y0049473D01*
X0106148Y0049327D01*
X0106269Y0049184D01*
X0106394Y0049043D01*
X0106521Y0048906D01*
X0106652Y0048772D01*
X0106315Y0062372D02*
X0106315Y0070291D01*
X0108520Y0070291D02*
X0108520Y0070167D01*
X0108522Y0069980D01*
X0108529Y0069792D01*
X0108540Y0069605D01*
X0108556Y0069419D01*
X0108576Y0069232D01*
X0108600Y0069046D01*
X0108629Y0068861D01*
X0108662Y0068677D01*
X0108700Y0068493D01*
X0108742Y0068311D01*
X0108788Y0068129D01*
X0108839Y0067949D01*
X0108894Y0067769D01*
X0108953Y0067592D01*
X0109016Y0067415D01*
X0109084Y0067241D01*
X0109156Y0067067D01*
X0109232Y0066896D01*
X0109311Y0066726D01*
X0109395Y0066559D01*
X0109483Y0066393D01*
X0109575Y0066230D01*
X0109671Y0066069D01*
X0109770Y0065910D01*
X0109873Y0065754D01*
X0109980Y0065600D01*
X0110091Y0065448D01*
X0110205Y0065300D01*
X0110322Y0065154D01*
X0110443Y0065011D01*
X0110568Y0064870D01*
X0110695Y0064733D01*
X0110826Y0064599D01*
X0116872Y0078520D02*
X0117059Y0078518D01*
X0117247Y0078511D01*
X0117434Y0078500D01*
X0117620Y0078484D01*
X0117807Y0078464D01*
X0117993Y0078440D01*
X0118178Y0078411D01*
X0118362Y0078378D01*
X0118546Y0078340D01*
X0118728Y0078298D01*
X0118910Y0078252D01*
X0119090Y0078201D01*
X0119270Y0078146D01*
X0119447Y0078087D01*
X0119624Y0078024D01*
X0119798Y0077956D01*
X0119972Y0077884D01*
X0120143Y0077808D01*
X0120313Y0077729D01*
X0120480Y0077645D01*
X0120646Y0077557D01*
X0120809Y0077465D01*
X0120970Y0077369D01*
X0121129Y0077270D01*
X0121285Y0077167D01*
X0121439Y0077060D01*
X0121591Y0076949D01*
X0121739Y0076835D01*
X0121885Y0076718D01*
X0122028Y0076597D01*
X0122169Y0076472D01*
X0122306Y0076345D01*
X0122440Y0076214D01*
X0122440Y0076213D02*
X0180134Y0018520D01*
X0180134Y0028520D02*
X0130235Y0078418D01*
X0132699Y0082693D02*
X0132886Y0082691D01*
X0133074Y0082684D01*
X0133261Y0082673D01*
X0133447Y0082657D01*
X0133634Y0082637D01*
X0133820Y0082613D01*
X0134005Y0082584D01*
X0134189Y0082551D01*
X0134373Y0082513D01*
X0134555Y0082471D01*
X0134737Y0082425D01*
X0134917Y0082374D01*
X0135097Y0082319D01*
X0135274Y0082260D01*
X0135451Y0082197D01*
X0135625Y0082129D01*
X0135799Y0082057D01*
X0135970Y0081981D01*
X0136140Y0081902D01*
X0136307Y0081818D01*
X0136473Y0081730D01*
X0136636Y0081638D01*
X0136797Y0081542D01*
X0136956Y0081443D01*
X0137112Y0081340D01*
X0137266Y0081233D01*
X0137418Y0081122D01*
X0137566Y0081008D01*
X0137712Y0080891D01*
X0137855Y0080770D01*
X0137996Y0080645D01*
X0138133Y0080518D01*
X0138267Y0080387D01*
X0180134Y0038520D01*
X0180134Y0048520D02*
X0146298Y0082355D01*
X0148762Y0086630D02*
X0148949Y0086628D01*
X0149137Y0086621D01*
X0149324Y0086610D01*
X0149510Y0086594D01*
X0149697Y0086574D01*
X0149883Y0086550D01*
X0150068Y0086521D01*
X0150252Y0086488D01*
X0150436Y0086450D01*
X0150618Y0086408D01*
X0150800Y0086362D01*
X0150980Y0086311D01*
X0151160Y0086256D01*
X0151337Y0086197D01*
X0151514Y0086134D01*
X0151688Y0086066D01*
X0151862Y0085994D01*
X0152033Y0085918D01*
X0152203Y0085839D01*
X0152370Y0085755D01*
X0152536Y0085667D01*
X0152699Y0085575D01*
X0152860Y0085479D01*
X0153019Y0085380D01*
X0153175Y0085277D01*
X0153329Y0085170D01*
X0153481Y0085059D01*
X0153629Y0084945D01*
X0153775Y0084828D01*
X0153918Y0084707D01*
X0154059Y0084582D01*
X0154196Y0084455D01*
X0154330Y0084324D01*
X0180134Y0058520D01*
X0180134Y0068520D02*
X0162361Y0086292D01*
X0164825Y0090567D02*
X0165012Y0090565D01*
X0165200Y0090558D01*
X0165387Y0090547D01*
X0165573Y0090531D01*
X0165760Y0090511D01*
X0165946Y0090487D01*
X0166131Y0090458D01*
X0166315Y0090425D01*
X0166499Y0090387D01*
X0166681Y0090345D01*
X0166863Y0090299D01*
X0167043Y0090248D01*
X0167223Y0090193D01*
X0167400Y0090134D01*
X0167577Y0090071D01*
X0167751Y0090003D01*
X0167925Y0089931D01*
X0168096Y0089855D01*
X0168266Y0089776D01*
X0168433Y0089692D01*
X0168599Y0089604D01*
X0168762Y0089512D01*
X0168923Y0089416D01*
X0169082Y0089317D01*
X0169238Y0089214D01*
X0169392Y0089107D01*
X0169544Y0088996D01*
X0169692Y0088882D01*
X0169838Y0088765D01*
X0169981Y0088644D01*
X0170122Y0088519D01*
X0170259Y0088392D01*
X0170393Y0088261D01*
X0180134Y0078520D01*
X0178425Y0090229D02*
X0178291Y0090360D01*
X0178154Y0090487D01*
X0178013Y0090612D01*
X0177870Y0090733D01*
X0177724Y0090850D01*
X0177576Y0090964D01*
X0177424Y0091075D01*
X0177270Y0091182D01*
X0177114Y0091285D01*
X0176955Y0091384D01*
X0176794Y0091480D01*
X0176631Y0091572D01*
X0176465Y0091660D01*
X0176298Y0091744D01*
X0176128Y0091823D01*
X0175957Y0091899D01*
X0175783Y0091971D01*
X0175609Y0092039D01*
X0175432Y0092102D01*
X0175255Y0092161D01*
X0175075Y0092216D01*
X0174895Y0092267D01*
X0174713Y0092313D01*
X0174531Y0092355D01*
X0174347Y0092393D01*
X0174163Y0092426D01*
X0173978Y0092455D01*
X0173792Y0092479D01*
X0173605Y0092499D01*
X0173419Y0092515D01*
X0173232Y0092526D01*
X0173044Y0092533D01*
X0172857Y0092535D01*
X0116748Y0092535D01*
X0116748Y0090567D02*
X0164825Y0090567D01*
X0164825Y0096472D02*
X0116748Y0096472D01*
X0116748Y0094504D02*
X0172857Y0094504D01*
X0170393Y0098779D02*
X0180134Y0108520D01*
X0178425Y0096810D02*
X0178291Y0096679D01*
X0178154Y0096552D01*
X0178013Y0096427D01*
X0177870Y0096306D01*
X0177724Y0096189D01*
X0177576Y0096075D01*
X0177424Y0095964D01*
X0177270Y0095857D01*
X0177114Y0095754D01*
X0176955Y0095655D01*
X0176794Y0095559D01*
X0176631Y0095467D01*
X0176465Y0095379D01*
X0176298Y0095295D01*
X0176128Y0095216D01*
X0175957Y0095140D01*
X0175783Y0095068D01*
X0175609Y0095000D01*
X0175432Y0094937D01*
X0175255Y0094878D01*
X0175075Y0094823D01*
X0174895Y0094772D01*
X0174713Y0094726D01*
X0174531Y0094684D01*
X0174347Y0094646D01*
X0174163Y0094613D01*
X0173978Y0094584D01*
X0173792Y0094560D01*
X0173605Y0094540D01*
X0173419Y0094524D01*
X0173232Y0094513D01*
X0173044Y0094506D01*
X0172857Y0094504D01*
X0178424Y0096810D02*
X0180134Y0098520D01*
X0178424Y0090229D02*
X0180134Y0088520D01*
X0170393Y0098778D02*
X0170259Y0098647D01*
X0170122Y0098520D01*
X0169981Y0098395D01*
X0169838Y0098274D01*
X0169692Y0098157D01*
X0169544Y0098043D01*
X0169392Y0097932D01*
X0169238Y0097825D01*
X0169082Y0097722D01*
X0168923Y0097623D01*
X0168762Y0097527D01*
X0168599Y0097435D01*
X0168433Y0097347D01*
X0168266Y0097263D01*
X0168096Y0097184D01*
X0167925Y0097108D01*
X0167751Y0097036D01*
X0167577Y0096968D01*
X0167400Y0096905D01*
X0167223Y0096846D01*
X0167043Y0096791D01*
X0166863Y0096740D01*
X0166681Y0096694D01*
X0166499Y0096652D01*
X0166315Y0096614D01*
X0166131Y0096581D01*
X0165946Y0096552D01*
X0165760Y0096528D01*
X0165573Y0096508D01*
X0165387Y0096492D01*
X0165200Y0096481D01*
X0165012Y0096474D01*
X0164825Y0096472D01*
X0162361Y0100747D02*
X0180134Y0118520D01*
X0180134Y0128520D02*
X0154330Y0102716D01*
X0156794Y0098441D02*
X0156981Y0098443D01*
X0157169Y0098450D01*
X0157356Y0098461D01*
X0157542Y0098477D01*
X0157729Y0098497D01*
X0157915Y0098521D01*
X0158100Y0098550D01*
X0158284Y0098583D01*
X0158468Y0098621D01*
X0158650Y0098663D01*
X0158832Y0098709D01*
X0159012Y0098760D01*
X0159192Y0098815D01*
X0159369Y0098874D01*
X0159546Y0098937D01*
X0159720Y0099005D01*
X0159894Y0099077D01*
X0160065Y0099153D01*
X0160235Y0099232D01*
X0160402Y0099316D01*
X0160568Y0099404D01*
X0160731Y0099496D01*
X0160892Y0099592D01*
X0161051Y0099691D01*
X0161207Y0099794D01*
X0161361Y0099901D01*
X0161513Y0100012D01*
X0161661Y0100126D01*
X0161807Y0100243D01*
X0161950Y0100364D01*
X0162091Y0100489D01*
X0162228Y0100616D01*
X0162362Y0100747D01*
X0156794Y0098441D02*
X0116748Y0098441D01*
X0116748Y0100409D02*
X0148762Y0100409D01*
X0146298Y0104684D02*
X0180134Y0138520D01*
X0180134Y0148520D02*
X0138267Y0106653D01*
X0140731Y0102378D02*
X0140918Y0102380D01*
X0141106Y0102387D01*
X0141293Y0102398D01*
X0141479Y0102414D01*
X0141666Y0102434D01*
X0141852Y0102458D01*
X0142037Y0102487D01*
X0142221Y0102520D01*
X0142405Y0102558D01*
X0142587Y0102600D01*
X0142769Y0102646D01*
X0142949Y0102697D01*
X0143129Y0102752D01*
X0143306Y0102811D01*
X0143483Y0102874D01*
X0143657Y0102942D01*
X0143831Y0103014D01*
X0144002Y0103090D01*
X0144172Y0103169D01*
X0144339Y0103253D01*
X0144505Y0103341D01*
X0144668Y0103433D01*
X0144829Y0103529D01*
X0144988Y0103628D01*
X0145144Y0103731D01*
X0145298Y0103838D01*
X0145450Y0103949D01*
X0145598Y0104063D01*
X0145744Y0104180D01*
X0145887Y0104301D01*
X0146028Y0104426D01*
X0146165Y0104553D01*
X0146299Y0104684D01*
X0148762Y0100409D02*
X0148949Y0100411D01*
X0149137Y0100418D01*
X0149324Y0100429D01*
X0149510Y0100445D01*
X0149697Y0100465D01*
X0149883Y0100489D01*
X0150068Y0100518D01*
X0150252Y0100551D01*
X0150436Y0100589D01*
X0150618Y0100631D01*
X0150800Y0100677D01*
X0150980Y0100728D01*
X0151160Y0100783D01*
X0151337Y0100842D01*
X0151514Y0100905D01*
X0151688Y0100973D01*
X0151862Y0101045D01*
X0152033Y0101121D01*
X0152203Y0101200D01*
X0152370Y0101284D01*
X0152536Y0101372D01*
X0152699Y0101464D01*
X0152860Y0101560D01*
X0153019Y0101659D01*
X0153175Y0101762D01*
X0153329Y0101869D01*
X0153481Y0101980D01*
X0153629Y0102094D01*
X0153775Y0102211D01*
X0153918Y0102332D01*
X0154059Y0102457D01*
X0154196Y0102584D01*
X0154330Y0102715D01*
X0140731Y0102378D02*
X0116748Y0102378D01*
X0116748Y0104346D02*
X0132699Y0104346D01*
X0130235Y0108621D02*
X0180134Y0158520D01*
X0180134Y0168520D02*
X0122440Y0110826D01*
X0124668Y0106315D02*
X0124855Y0106317D01*
X0125043Y0106324D01*
X0125230Y0106335D01*
X0125416Y0106351D01*
X0125603Y0106371D01*
X0125789Y0106395D01*
X0125974Y0106424D01*
X0126158Y0106457D01*
X0126342Y0106495D01*
X0126524Y0106537D01*
X0126706Y0106583D01*
X0126886Y0106634D01*
X0127066Y0106689D01*
X0127243Y0106748D01*
X0127420Y0106811D01*
X0127594Y0106879D01*
X0127768Y0106951D01*
X0127939Y0107027D01*
X0128109Y0107106D01*
X0128276Y0107190D01*
X0128442Y0107278D01*
X0128605Y0107370D01*
X0128766Y0107466D01*
X0128925Y0107565D01*
X0129081Y0107668D01*
X0129235Y0107775D01*
X0129387Y0107886D01*
X0129535Y0108000D01*
X0129681Y0108117D01*
X0129824Y0108238D01*
X0129965Y0108363D01*
X0130102Y0108490D01*
X0130236Y0108621D01*
X0132699Y0104346D02*
X0132886Y0104348D01*
X0133074Y0104355D01*
X0133261Y0104366D01*
X0133447Y0104382D01*
X0133634Y0104402D01*
X0133820Y0104426D01*
X0134005Y0104455D01*
X0134189Y0104488D01*
X0134373Y0104526D01*
X0134555Y0104568D01*
X0134737Y0104614D01*
X0134917Y0104665D01*
X0135097Y0104720D01*
X0135274Y0104779D01*
X0135451Y0104842D01*
X0135625Y0104910D01*
X0135799Y0104982D01*
X0135970Y0105058D01*
X0136140Y0105137D01*
X0136307Y0105221D01*
X0136473Y0105309D01*
X0136636Y0105401D01*
X0136797Y0105497D01*
X0136956Y0105596D01*
X0137112Y0105699D01*
X0137266Y0105806D01*
X0137418Y0105917D01*
X0137566Y0106031D01*
X0137712Y0106148D01*
X0137855Y0106269D01*
X0137996Y0106394D01*
X0138133Y0106521D01*
X0138267Y0106652D01*
X0124668Y0106315D02*
X0116748Y0106315D01*
X0116748Y0108520D02*
X0116872Y0108520D01*
X0117059Y0108522D01*
X0117247Y0108529D01*
X0117434Y0108540D01*
X0117620Y0108556D01*
X0117807Y0108576D01*
X0117993Y0108600D01*
X0118178Y0108629D01*
X0118362Y0108662D01*
X0118546Y0108700D01*
X0118728Y0108742D01*
X0118910Y0108788D01*
X0119090Y0108839D01*
X0119270Y0108894D01*
X0119447Y0108953D01*
X0119624Y0109016D01*
X0119798Y0109084D01*
X0119972Y0109156D01*
X0120143Y0109232D01*
X0120313Y0109311D01*
X0120480Y0109395D01*
X0120646Y0109483D01*
X0120809Y0109575D01*
X0120970Y0109671D01*
X0121129Y0109770D01*
X0121285Y0109873D01*
X0121439Y0109980D01*
X0121591Y0110091D01*
X0121739Y0110205D01*
X0121885Y0110322D01*
X0122028Y0110443D01*
X0122169Y0110568D01*
X0122306Y0110695D01*
X0122440Y0110826D01*
X0108520Y0116872D02*
X0108522Y0117059D01*
X0108529Y0117247D01*
X0108540Y0117434D01*
X0108556Y0117620D01*
X0108576Y0117807D01*
X0108600Y0117993D01*
X0108629Y0118178D01*
X0108662Y0118362D01*
X0108700Y0118546D01*
X0108742Y0118728D01*
X0108788Y0118910D01*
X0108839Y0119090D01*
X0108894Y0119270D01*
X0108953Y0119447D01*
X0109016Y0119624D01*
X0109084Y0119798D01*
X0109156Y0119972D01*
X0109232Y0120143D01*
X0109311Y0120313D01*
X0109395Y0120480D01*
X0109483Y0120646D01*
X0109575Y0120809D01*
X0109671Y0120970D01*
X0109770Y0121129D01*
X0109873Y0121285D01*
X0109980Y0121439D01*
X0110091Y0121591D01*
X0110205Y0121739D01*
X0110322Y0121885D01*
X0110443Y0122028D01*
X0110568Y0122169D01*
X0110695Y0122306D01*
X0110826Y0122440D01*
X0168520Y0180134D01*
X0158520Y0180134D02*
X0108621Y0130235D01*
X0104346Y0132699D02*
X0104348Y0132886D01*
X0104355Y0133074D01*
X0104366Y0133261D01*
X0104382Y0133447D01*
X0104402Y0133634D01*
X0104426Y0133820D01*
X0104455Y0134005D01*
X0104488Y0134189D01*
X0104526Y0134373D01*
X0104568Y0134555D01*
X0104614Y0134737D01*
X0104665Y0134917D01*
X0104720Y0135097D01*
X0104779Y0135274D01*
X0104842Y0135451D01*
X0104910Y0135625D01*
X0104982Y0135799D01*
X0105058Y0135970D01*
X0105137Y0136140D01*
X0105221Y0136307D01*
X0105309Y0136473D01*
X0105401Y0136636D01*
X0105497Y0136797D01*
X0105596Y0136956D01*
X0105699Y0137112D01*
X0105806Y0137266D01*
X0105917Y0137418D01*
X0106031Y0137566D01*
X0106148Y0137712D01*
X0106269Y0137855D01*
X0106394Y0137996D01*
X0106521Y0138133D01*
X0106652Y0138267D01*
X0106653Y0138267D02*
X0148520Y0180134D01*
X0138520Y0180134D02*
X0104684Y0146298D01*
X0100409Y0148762D02*
X0100411Y0148949D01*
X0100418Y0149137D01*
X0100429Y0149324D01*
X0100445Y0149510D01*
X0100465Y0149697D01*
X0100489Y0149883D01*
X0100518Y0150068D01*
X0100551Y0150252D01*
X0100589Y0150436D01*
X0100631Y0150618D01*
X0100677Y0150800D01*
X0100728Y0150980D01*
X0100783Y0151160D01*
X0100842Y0151337D01*
X0100905Y0151514D01*
X0100973Y0151688D01*
X0101045Y0151862D01*
X0101121Y0152033D01*
X0101200Y0152203D01*
X0101284Y0152370D01*
X0101372Y0152536D01*
X0101464Y0152699D01*
X0101560Y0152860D01*
X0101659Y0153019D01*
X0101762Y0153175D01*
X0101869Y0153329D01*
X0101980Y0153481D01*
X0102094Y0153629D01*
X0102211Y0153775D01*
X0102332Y0153918D01*
X0102457Y0154059D01*
X0102584Y0154196D01*
X0102715Y0154330D01*
X0102716Y0154330D02*
X0128520Y0180134D01*
X0118520Y0180134D02*
X0100747Y0162361D01*
X0096472Y0164825D02*
X0096474Y0165012D01*
X0096481Y0165200D01*
X0096492Y0165387D01*
X0096508Y0165573D01*
X0096528Y0165760D01*
X0096552Y0165946D01*
X0096581Y0166131D01*
X0096614Y0166315D01*
X0096652Y0166499D01*
X0096694Y0166681D01*
X0096740Y0166863D01*
X0096791Y0167043D01*
X0096846Y0167223D01*
X0096905Y0167400D01*
X0096968Y0167577D01*
X0097036Y0167751D01*
X0097108Y0167925D01*
X0097184Y0168096D01*
X0097263Y0168266D01*
X0097347Y0168433D01*
X0097435Y0168599D01*
X0097527Y0168762D01*
X0097623Y0168923D01*
X0097722Y0169082D01*
X0097825Y0169238D01*
X0097932Y0169392D01*
X0098043Y0169544D01*
X0098157Y0169692D01*
X0098274Y0169838D01*
X0098395Y0169981D01*
X0098520Y0170122D01*
X0098647Y0170259D01*
X0098778Y0170393D01*
X0098779Y0170393D02*
X0108520Y0180134D01*
X0096810Y0178425D02*
X0096679Y0178291D01*
X0096552Y0178154D01*
X0096427Y0178013D01*
X0096306Y0177870D01*
X0096189Y0177724D01*
X0096075Y0177576D01*
X0095964Y0177424D01*
X0095857Y0177270D01*
X0095754Y0177114D01*
X0095655Y0176955D01*
X0095559Y0176794D01*
X0095467Y0176631D01*
X0095379Y0176465D01*
X0095295Y0176298D01*
X0095216Y0176128D01*
X0095140Y0175957D01*
X0095068Y0175783D01*
X0095000Y0175609D01*
X0094937Y0175432D01*
X0094878Y0175255D01*
X0094823Y0175075D01*
X0094772Y0174895D01*
X0094726Y0174713D01*
X0094684Y0174531D01*
X0094646Y0174347D01*
X0094613Y0174163D01*
X0094584Y0173978D01*
X0094560Y0173792D01*
X0094540Y0173605D01*
X0094524Y0173419D01*
X0094513Y0173232D01*
X0094506Y0173044D01*
X0094504Y0172857D01*
X0094504Y0116748D01*
X0096472Y0116748D02*
X0096472Y0164825D01*
X0090567Y0164825D02*
X0090567Y0116748D01*
X0092535Y0116748D02*
X0092535Y0172857D01*
X0088261Y0170393D02*
X0078520Y0180134D01*
X0090229Y0178425D02*
X0090360Y0178291D01*
X0090487Y0178154D01*
X0090612Y0178013D01*
X0090733Y0177870D01*
X0090850Y0177724D01*
X0090964Y0177576D01*
X0091075Y0177424D01*
X0091182Y0177270D01*
X0091285Y0177114D01*
X0091384Y0176955D01*
X0091480Y0176794D01*
X0091572Y0176631D01*
X0091660Y0176465D01*
X0091744Y0176298D01*
X0091823Y0176128D01*
X0091899Y0175957D01*
X0091971Y0175783D01*
X0092039Y0175609D01*
X0092102Y0175432D01*
X0092161Y0175255D01*
X0092216Y0175075D01*
X0092267Y0174895D01*
X0092313Y0174713D01*
X0092355Y0174531D01*
X0092393Y0174347D01*
X0092426Y0174163D01*
X0092455Y0173978D01*
X0092479Y0173792D01*
X0092499Y0173605D01*
X0092515Y0173419D01*
X0092526Y0173232D01*
X0092533Y0173044D01*
X0092535Y0172857D01*
X0090229Y0178424D02*
X0088520Y0180134D01*
X0096810Y0178424D02*
X0098520Y0180134D01*
X0088261Y0170393D02*
X0088392Y0170259D01*
X0088519Y0170122D01*
X0088644Y0169981D01*
X0088765Y0169838D01*
X0088882Y0169692D01*
X0088996Y0169544D01*
X0089107Y0169392D01*
X0089214Y0169238D01*
X0089317Y0169082D01*
X0089416Y0168923D01*
X0089512Y0168762D01*
X0089604Y0168599D01*
X0089692Y0168433D01*
X0089776Y0168266D01*
X0089855Y0168096D01*
X0089931Y0167925D01*
X0090003Y0167751D01*
X0090071Y0167577D01*
X0090134Y0167400D01*
X0090193Y0167223D01*
X0090248Y0167043D01*
X0090299Y0166863D01*
X0090345Y0166681D01*
X0090387Y0166499D01*
X0090425Y0166315D01*
X0090458Y0166131D01*
X0090487Y0165946D01*
X0090511Y0165760D01*
X0090531Y0165573D01*
X0090547Y0165387D01*
X0090558Y0165200D01*
X0090565Y0165012D01*
X0090567Y0164825D01*
X0086292Y0162361D02*
X0068520Y0180134D01*
X0058520Y0180134D02*
X0084324Y0154330D01*
X0088598Y0156794D02*
X0088596Y0156981D01*
X0088589Y0157169D01*
X0088578Y0157356D01*
X0088562Y0157542D01*
X0088542Y0157729D01*
X0088518Y0157915D01*
X0088489Y0158100D01*
X0088456Y0158284D01*
X0088418Y0158468D01*
X0088376Y0158650D01*
X0088330Y0158832D01*
X0088279Y0159012D01*
X0088224Y0159192D01*
X0088165Y0159369D01*
X0088102Y0159546D01*
X0088034Y0159720D01*
X0087962Y0159894D01*
X0087886Y0160065D01*
X0087807Y0160235D01*
X0087723Y0160402D01*
X0087635Y0160568D01*
X0087543Y0160731D01*
X0087447Y0160892D01*
X0087348Y0161051D01*
X0087245Y0161207D01*
X0087138Y0161361D01*
X0087027Y0161513D01*
X0086913Y0161661D01*
X0086796Y0161807D01*
X0086675Y0161950D01*
X0086550Y0162091D01*
X0086423Y0162228D01*
X0086292Y0162362D01*
X0088598Y0156794D02*
X0088598Y0116748D01*
X0086630Y0116748D02*
X0086630Y0148762D01*
X0082355Y0146298D02*
X0048520Y0180134D01*
X0038520Y0180134D02*
X0080387Y0138267D01*
X0084661Y0140731D02*
X0084659Y0140918D01*
X0084652Y0141106D01*
X0084641Y0141293D01*
X0084625Y0141479D01*
X0084605Y0141666D01*
X0084581Y0141852D01*
X0084552Y0142037D01*
X0084519Y0142221D01*
X0084481Y0142405D01*
X0084439Y0142587D01*
X0084393Y0142769D01*
X0084342Y0142949D01*
X0084287Y0143129D01*
X0084228Y0143306D01*
X0084165Y0143483D01*
X0084097Y0143657D01*
X0084025Y0143831D01*
X0083949Y0144002D01*
X0083870Y0144172D01*
X0083786Y0144339D01*
X0083698Y0144505D01*
X0083606Y0144668D01*
X0083510Y0144829D01*
X0083411Y0144988D01*
X0083308Y0145144D01*
X0083201Y0145298D01*
X0083090Y0145450D01*
X0082976Y0145598D01*
X0082859Y0145744D01*
X0082738Y0145887D01*
X0082613Y0146028D01*
X0082486Y0146165D01*
X0082355Y0146299D01*
X0086630Y0148762D02*
X0086628Y0148949D01*
X0086621Y0149137D01*
X0086610Y0149324D01*
X0086594Y0149510D01*
X0086574Y0149697D01*
X0086550Y0149883D01*
X0086521Y0150068D01*
X0086488Y0150252D01*
X0086450Y0150436D01*
X0086408Y0150618D01*
X0086362Y0150800D01*
X0086311Y0150980D01*
X0086256Y0151160D01*
X0086197Y0151337D01*
X0086134Y0151514D01*
X0086066Y0151688D01*
X0085994Y0151862D01*
X0085918Y0152033D01*
X0085839Y0152203D01*
X0085755Y0152370D01*
X0085667Y0152536D01*
X0085575Y0152699D01*
X0085479Y0152860D01*
X0085380Y0153019D01*
X0085277Y0153175D01*
X0085170Y0153329D01*
X0085059Y0153481D01*
X0084945Y0153629D01*
X0084828Y0153775D01*
X0084707Y0153918D01*
X0084582Y0154059D01*
X0084455Y0154196D01*
X0084324Y0154330D01*
X0084661Y0140731D02*
X0084661Y0116748D01*
X0082693Y0116748D02*
X0082693Y0132699D01*
X0078418Y0130235D02*
X0028520Y0180134D01*
X0018520Y0180134D02*
X0076213Y0122440D01*
X0080724Y0124668D02*
X0080722Y0124855D01*
X0080715Y0125043D01*
X0080704Y0125230D01*
X0080688Y0125416D01*
X0080668Y0125603D01*
X0080644Y0125789D01*
X0080615Y0125974D01*
X0080582Y0126158D01*
X0080544Y0126342D01*
X0080502Y0126524D01*
X0080456Y0126706D01*
X0080405Y0126886D01*
X0080350Y0127066D01*
X0080291Y0127243D01*
X0080228Y0127420D01*
X0080160Y0127594D01*
X0080088Y0127768D01*
X0080012Y0127939D01*
X0079933Y0128109D01*
X0079849Y0128276D01*
X0079761Y0128442D01*
X0079669Y0128605D01*
X0079573Y0128766D01*
X0079474Y0128925D01*
X0079371Y0129081D01*
X0079264Y0129235D01*
X0079153Y0129387D01*
X0079039Y0129535D01*
X0078922Y0129681D01*
X0078801Y0129824D01*
X0078676Y0129965D01*
X0078549Y0130102D01*
X0078418Y0130236D01*
X0082693Y0132699D02*
X0082691Y0132886D01*
X0082684Y0133074D01*
X0082673Y0133261D01*
X0082657Y0133447D01*
X0082637Y0133634D01*
X0082613Y0133820D01*
X0082584Y0134005D01*
X0082551Y0134189D01*
X0082513Y0134373D01*
X0082471Y0134555D01*
X0082425Y0134737D01*
X0082374Y0134917D01*
X0082319Y0135097D01*
X0082260Y0135274D01*
X0082197Y0135451D01*
X0082129Y0135625D01*
X0082057Y0135799D01*
X0081981Y0135970D01*
X0081902Y0136140D01*
X0081818Y0136307D01*
X0081730Y0136473D01*
X0081638Y0136636D01*
X0081542Y0136797D01*
X0081443Y0136956D01*
X0081340Y0137112D01*
X0081233Y0137266D01*
X0081122Y0137418D01*
X0081008Y0137566D01*
X0080891Y0137712D01*
X0080770Y0137855D01*
X0080645Y0137996D01*
X0080518Y0138133D01*
X0080387Y0138267D01*
X0080724Y0124668D02*
X0080724Y0116748D01*
X0078520Y0116748D02*
X0078520Y0116872D01*
X0078518Y0117059D01*
X0078511Y0117247D01*
X0078500Y0117434D01*
X0078484Y0117620D01*
X0078464Y0117807D01*
X0078440Y0117993D01*
X0078411Y0118178D01*
X0078378Y0118362D01*
X0078340Y0118546D01*
X0078298Y0118728D01*
X0078252Y0118910D01*
X0078201Y0119090D01*
X0078146Y0119270D01*
X0078087Y0119447D01*
X0078024Y0119624D01*
X0077956Y0119798D01*
X0077884Y0119972D01*
X0077808Y0120143D01*
X0077729Y0120313D01*
X0077645Y0120480D01*
X0077557Y0120646D01*
X0077465Y0120809D01*
X0077369Y0120970D01*
X0077270Y0121129D01*
X0077167Y0121285D01*
X0077060Y0121439D01*
X0076949Y0121591D01*
X0076835Y0121739D01*
X0076718Y0121885D01*
X0076597Y0122028D01*
X0076472Y0122169D01*
X0076345Y0122306D01*
X0076214Y0122440D01*
X0070167Y0108520D02*
X0069980Y0108522D01*
X0069792Y0108529D01*
X0069605Y0108540D01*
X0069419Y0108556D01*
X0069232Y0108576D01*
X0069046Y0108600D01*
X0068861Y0108629D01*
X0068677Y0108662D01*
X0068493Y0108700D01*
X0068311Y0108742D01*
X0068129Y0108788D01*
X0067949Y0108839D01*
X0067769Y0108894D01*
X0067592Y0108953D01*
X0067415Y0109016D01*
X0067241Y0109084D01*
X0067067Y0109156D01*
X0066896Y0109232D01*
X0066726Y0109311D01*
X0066559Y0109395D01*
X0066393Y0109483D01*
X0066230Y0109575D01*
X0066069Y0109671D01*
X0065910Y0109770D01*
X0065754Y0109873D01*
X0065600Y0109980D01*
X0065448Y0110091D01*
X0065300Y0110205D01*
X0065154Y0110322D01*
X0065011Y0110443D01*
X0064870Y0110568D01*
X0064733Y0110695D01*
X0064599Y0110826D01*
X0006906Y0168520D01*
X0006906Y0158520D02*
X0056804Y0108621D01*
X0054340Y0104346D02*
X0054153Y0104348D01*
X0053965Y0104355D01*
X0053778Y0104366D01*
X0053592Y0104382D01*
X0053405Y0104402D01*
X0053219Y0104426D01*
X0053034Y0104455D01*
X0052850Y0104488D01*
X0052666Y0104526D01*
X0052484Y0104568D01*
X0052302Y0104614D01*
X0052122Y0104665D01*
X0051942Y0104720D01*
X0051765Y0104779D01*
X0051588Y0104842D01*
X0051414Y0104910D01*
X0051240Y0104982D01*
X0051069Y0105058D01*
X0050899Y0105137D01*
X0050732Y0105221D01*
X0050566Y0105309D01*
X0050403Y0105401D01*
X0050242Y0105497D01*
X0050083Y0105596D01*
X0049927Y0105699D01*
X0049773Y0105806D01*
X0049621Y0105917D01*
X0049473Y0106031D01*
X0049327Y0106148D01*
X0049184Y0106269D01*
X0049043Y0106394D01*
X0048906Y0106521D01*
X0048772Y0106652D01*
X0048772Y0106653D02*
X0006906Y0148520D01*
X0006906Y0138520D02*
X0040741Y0104684D01*
X0038277Y0100409D02*
X0038090Y0100411D01*
X0037902Y0100418D01*
X0037715Y0100429D01*
X0037529Y0100445D01*
X0037342Y0100465D01*
X0037156Y0100489D01*
X0036971Y0100518D01*
X0036787Y0100551D01*
X0036603Y0100589D01*
X0036421Y0100631D01*
X0036239Y0100677D01*
X0036059Y0100728D01*
X0035879Y0100783D01*
X0035702Y0100842D01*
X0035525Y0100905D01*
X0035351Y0100973D01*
X0035177Y0101045D01*
X0035006Y0101121D01*
X0034836Y0101200D01*
X0034669Y0101284D01*
X0034503Y0101372D01*
X0034340Y0101464D01*
X0034179Y0101560D01*
X0034020Y0101659D01*
X0033864Y0101762D01*
X0033710Y0101869D01*
X0033558Y0101980D01*
X0033410Y0102094D01*
X0033264Y0102211D01*
X0033121Y0102332D01*
X0032980Y0102457D01*
X0032843Y0102584D01*
X0032709Y0102715D01*
X0032709Y0102716D02*
X0006906Y0128520D01*
X0006906Y0118520D02*
X0024678Y0100747D01*
X0022214Y0096472D02*
X0022027Y0096474D01*
X0021839Y0096481D01*
X0021652Y0096492D01*
X0021466Y0096508D01*
X0021279Y0096528D01*
X0021093Y0096552D01*
X0020908Y0096581D01*
X0020724Y0096614D01*
X0020540Y0096652D01*
X0020358Y0096694D01*
X0020176Y0096740D01*
X0019996Y0096791D01*
X0019816Y0096846D01*
X0019639Y0096905D01*
X0019462Y0096968D01*
X0019288Y0097036D01*
X0019114Y0097108D01*
X0018943Y0097184D01*
X0018773Y0097263D01*
X0018606Y0097347D01*
X0018440Y0097435D01*
X0018277Y0097527D01*
X0018116Y0097623D01*
X0017957Y0097722D01*
X0017801Y0097825D01*
X0017647Y0097932D01*
X0017495Y0098043D01*
X0017347Y0098157D01*
X0017201Y0098274D01*
X0017058Y0098395D01*
X0016917Y0098520D01*
X0016780Y0098647D01*
X0016646Y0098778D01*
X0016647Y0098779D02*
X0006906Y0108520D01*
X0008615Y0096810D02*
X0008749Y0096679D01*
X0008886Y0096552D01*
X0009027Y0096427D01*
X0009170Y0096306D01*
X0009316Y0096189D01*
X0009464Y0096075D01*
X0009616Y0095964D01*
X0009770Y0095857D01*
X0009926Y0095754D01*
X0010085Y0095655D01*
X0010246Y0095559D01*
X0010409Y0095467D01*
X0010575Y0095379D01*
X0010742Y0095295D01*
X0010912Y0095216D01*
X0011083Y0095140D01*
X0011257Y0095068D01*
X0011431Y0095000D01*
X0011608Y0094937D01*
X0011785Y0094878D01*
X0011965Y0094823D01*
X0012145Y0094772D01*
X0012327Y0094726D01*
X0012509Y0094684D01*
X0012693Y0094646D01*
X0012877Y0094613D01*
X0013062Y0094584D01*
X0013248Y0094560D01*
X0013435Y0094540D01*
X0013621Y0094524D01*
X0013808Y0094513D01*
X0013996Y0094506D01*
X0014183Y0094504D01*
X0070291Y0094504D01*
X0070291Y0096472D02*
X0022214Y0096472D01*
X0022214Y0090567D02*
X0070291Y0090567D01*
X0070291Y0092535D02*
X0014183Y0092535D01*
X0016647Y0088261D02*
X0006906Y0078520D01*
X0008615Y0090229D02*
X0008749Y0090360D01*
X0008886Y0090487D01*
X0009027Y0090612D01*
X0009170Y0090733D01*
X0009316Y0090850D01*
X0009464Y0090964D01*
X0009616Y0091075D01*
X0009770Y0091182D01*
X0009926Y0091285D01*
X0010085Y0091384D01*
X0010246Y0091480D01*
X0010409Y0091572D01*
X0010575Y0091660D01*
X0010742Y0091744D01*
X0010912Y0091823D01*
X0011083Y0091899D01*
X0011257Y0091971D01*
X0011431Y0092039D01*
X0011608Y0092102D01*
X0011785Y0092161D01*
X0011965Y0092216D01*
X0012145Y0092267D01*
X0012327Y0092313D01*
X0012509Y0092355D01*
X0012693Y0092393D01*
X0012877Y0092426D01*
X0013062Y0092455D01*
X0013248Y0092479D01*
X0013435Y0092499D01*
X0013621Y0092515D01*
X0013808Y0092526D01*
X0013996Y0092533D01*
X0014183Y0092535D01*
X0008615Y0090229D02*
X0006906Y0088520D01*
X0008615Y0096810D02*
X0006906Y0098520D01*
X0016646Y0088261D02*
X0016780Y0088392D01*
X0016917Y0088519D01*
X0017058Y0088644D01*
X0017201Y0088765D01*
X0017347Y0088882D01*
X0017495Y0088996D01*
X0017647Y0089107D01*
X0017801Y0089214D01*
X0017957Y0089317D01*
X0018116Y0089416D01*
X0018277Y0089512D01*
X0018440Y0089604D01*
X0018606Y0089692D01*
X0018773Y0089776D01*
X0018943Y0089855D01*
X0019114Y0089931D01*
X0019288Y0090003D01*
X0019462Y0090071D01*
X0019639Y0090134D01*
X0019816Y0090193D01*
X0019996Y0090248D01*
X0020176Y0090299D01*
X0020358Y0090345D01*
X0020540Y0090387D01*
X0020724Y0090425D01*
X0020908Y0090458D01*
X0021093Y0090487D01*
X0021279Y0090511D01*
X0021466Y0090531D01*
X0021652Y0090547D01*
X0021839Y0090558D01*
X0022027Y0090565D01*
X0022214Y0090567D01*
X0024678Y0086292D02*
X0006906Y0068520D01*
X0006906Y0058520D02*
X0032709Y0084324D01*
X0030246Y0088598D02*
X0030059Y0088596D01*
X0029871Y0088589D01*
X0029684Y0088578D01*
X0029498Y0088562D01*
X0029311Y0088542D01*
X0029125Y0088518D01*
X0028940Y0088489D01*
X0028756Y0088456D01*
X0028572Y0088418D01*
X0028390Y0088376D01*
X0028208Y0088330D01*
X0028028Y0088279D01*
X0027848Y0088224D01*
X0027671Y0088165D01*
X0027494Y0088102D01*
X0027320Y0088034D01*
X0027146Y0087962D01*
X0026975Y0087886D01*
X0026805Y0087807D01*
X0026638Y0087723D01*
X0026472Y0087635D01*
X0026309Y0087543D01*
X0026148Y0087447D01*
X0025989Y0087348D01*
X0025833Y0087245D01*
X0025679Y0087138D01*
X0025527Y0087027D01*
X0025379Y0086913D01*
X0025233Y0086796D01*
X0025090Y0086675D01*
X0024949Y0086550D01*
X0024812Y0086423D01*
X0024678Y0086292D01*
X0030246Y0088598D02*
X0070291Y0088598D01*
X0070291Y0086630D02*
X0038277Y0086630D01*
X0040741Y0082355D02*
X0006906Y0048520D01*
X0006906Y0038520D02*
X0048772Y0080387D01*
X0046309Y0084661D02*
X0046122Y0084659D01*
X0045934Y0084652D01*
X0045747Y0084641D01*
X0045561Y0084625D01*
X0045374Y0084605D01*
X0045188Y0084581D01*
X0045003Y0084552D01*
X0044819Y0084519D01*
X0044635Y0084481D01*
X0044453Y0084439D01*
X0044271Y0084393D01*
X0044091Y0084342D01*
X0043911Y0084287D01*
X0043734Y0084228D01*
X0043557Y0084165D01*
X0043383Y0084097D01*
X0043209Y0084025D01*
X0043038Y0083949D01*
X0042868Y0083870D01*
X0042701Y0083786D01*
X0042535Y0083698D01*
X0042372Y0083606D01*
X0042211Y0083510D01*
X0042052Y0083411D01*
X0041896Y0083308D01*
X0041742Y0083201D01*
X0041590Y0083090D01*
X0041442Y0082976D01*
X0041296Y0082859D01*
X0041153Y0082738D01*
X0041012Y0082613D01*
X0040875Y0082486D01*
X0040741Y0082355D01*
X0038277Y0086630D02*
X0038090Y0086628D01*
X0037902Y0086621D01*
X0037715Y0086610D01*
X0037529Y0086594D01*
X0037342Y0086574D01*
X0037156Y0086550D01*
X0036971Y0086521D01*
X0036787Y0086488D01*
X0036603Y0086450D01*
X0036421Y0086408D01*
X0036239Y0086362D01*
X0036059Y0086311D01*
X0035879Y0086256D01*
X0035702Y0086197D01*
X0035525Y0086134D01*
X0035351Y0086066D01*
X0035177Y0085994D01*
X0035006Y0085918D01*
X0034836Y0085839D01*
X0034669Y0085755D01*
X0034503Y0085667D01*
X0034340Y0085575D01*
X0034179Y0085479D01*
X0034020Y0085380D01*
X0033864Y0085277D01*
X0033710Y0085170D01*
X0033558Y0085059D01*
X0033410Y0084945D01*
X0033264Y0084828D01*
X0033121Y0084707D01*
X0032980Y0084582D01*
X0032843Y0084455D01*
X0032709Y0084324D01*
X0046309Y0084661D02*
X0070291Y0084661D01*
X0070291Y0082693D02*
X0054340Y0082693D01*
X0056804Y0078418D02*
X0006906Y0028520D01*
X0006906Y0018520D02*
X0064599Y0076213D01*
X0062372Y0080724D02*
X0062185Y0080722D01*
X0061997Y0080715D01*
X0061810Y0080704D01*
X0061624Y0080688D01*
X0061437Y0080668D01*
X0061251Y0080644D01*
X0061066Y0080615D01*
X0060882Y0080582D01*
X0060698Y0080544D01*
X0060516Y0080502D01*
X0060334Y0080456D01*
X0060154Y0080405D01*
X0059974Y0080350D01*
X0059797Y0080291D01*
X0059620Y0080228D01*
X0059446Y0080160D01*
X0059272Y0080088D01*
X0059101Y0080012D01*
X0058931Y0079933D01*
X0058764Y0079849D01*
X0058598Y0079761D01*
X0058435Y0079669D01*
X0058274Y0079573D01*
X0058115Y0079474D01*
X0057959Y0079371D01*
X0057805Y0079264D01*
X0057653Y0079153D01*
X0057505Y0079039D01*
X0057359Y0078922D01*
X0057216Y0078801D01*
X0057075Y0078676D01*
X0056938Y0078549D01*
X0056804Y0078418D01*
X0054340Y0082693D02*
X0054153Y0082691D01*
X0053965Y0082684D01*
X0053778Y0082673D01*
X0053592Y0082657D01*
X0053405Y0082637D01*
X0053219Y0082613D01*
X0053034Y0082584D01*
X0052850Y0082551D01*
X0052666Y0082513D01*
X0052484Y0082471D01*
X0052302Y0082425D01*
X0052122Y0082374D01*
X0051942Y0082319D01*
X0051765Y0082260D01*
X0051588Y0082197D01*
X0051414Y0082129D01*
X0051240Y0082057D01*
X0051069Y0081981D01*
X0050899Y0081902D01*
X0050732Y0081818D01*
X0050566Y0081730D01*
X0050403Y0081638D01*
X0050242Y0081542D01*
X0050083Y0081443D01*
X0049927Y0081340D01*
X0049773Y0081233D01*
X0049621Y0081122D01*
X0049473Y0081008D01*
X0049327Y0080891D01*
X0049184Y0080770D01*
X0049043Y0080645D01*
X0048906Y0080518D01*
X0048772Y0080387D01*
X0062372Y0080724D02*
X0070291Y0080724D01*
X0070291Y0078520D02*
X0070167Y0078520D01*
X0069980Y0078518D01*
X0069792Y0078511D01*
X0069605Y0078500D01*
X0069419Y0078484D01*
X0069232Y0078464D01*
X0069046Y0078440D01*
X0068861Y0078411D01*
X0068677Y0078378D01*
X0068493Y0078340D01*
X0068311Y0078298D01*
X0068129Y0078252D01*
X0067949Y0078201D01*
X0067769Y0078146D01*
X0067592Y0078087D01*
X0067415Y0078024D01*
X0067241Y0077956D01*
X0067067Y0077884D01*
X0066896Y0077808D01*
X0066726Y0077729D01*
X0066559Y0077645D01*
X0066393Y0077557D01*
X0066230Y0077465D01*
X0066069Y0077369D01*
X0065910Y0077270D01*
X0065754Y0077167D01*
X0065600Y0077060D01*
X0065448Y0076949D01*
X0065300Y0076835D01*
X0065154Y0076718D01*
X0065011Y0076597D01*
X0064870Y0076472D01*
X0064733Y0076345D01*
X0064599Y0076214D01*
X0078520Y0070167D02*
X0078518Y0069980D01*
X0078511Y0069792D01*
X0078500Y0069605D01*
X0078484Y0069419D01*
X0078464Y0069232D01*
X0078440Y0069046D01*
X0078411Y0068861D01*
X0078378Y0068677D01*
X0078340Y0068493D01*
X0078298Y0068311D01*
X0078252Y0068129D01*
X0078201Y0067949D01*
X0078146Y0067769D01*
X0078087Y0067592D01*
X0078024Y0067415D01*
X0077956Y0067241D01*
X0077884Y0067067D01*
X0077808Y0066896D01*
X0077729Y0066726D01*
X0077645Y0066559D01*
X0077557Y0066393D01*
X0077465Y0066230D01*
X0077369Y0066069D01*
X0077270Y0065910D01*
X0077167Y0065754D01*
X0077060Y0065600D01*
X0076949Y0065448D01*
X0076835Y0065300D01*
X0076718Y0065154D01*
X0076597Y0065011D01*
X0076472Y0064870D01*
X0076345Y0064733D01*
X0076214Y0064599D01*
X0080724Y0062372D02*
X0080722Y0062185D01*
X0080715Y0061997D01*
X0080704Y0061810D01*
X0080688Y0061624D01*
X0080668Y0061437D01*
X0080644Y0061251D01*
X0080615Y0061066D01*
X0080582Y0060882D01*
X0080544Y0060698D01*
X0080502Y0060516D01*
X0080456Y0060334D01*
X0080405Y0060154D01*
X0080350Y0059974D01*
X0080291Y0059797D01*
X0080228Y0059620D01*
X0080160Y0059446D01*
X0080088Y0059272D01*
X0080012Y0059101D01*
X0079933Y0058931D01*
X0079849Y0058764D01*
X0079761Y0058598D01*
X0079669Y0058435D01*
X0079573Y0058274D01*
X0079474Y0058115D01*
X0079371Y0057959D01*
X0079264Y0057805D01*
X0079153Y0057653D01*
X0079039Y0057505D01*
X0078922Y0057359D01*
X0078801Y0057216D01*
X0078676Y0057075D01*
X0078549Y0056938D01*
X0078418Y0056804D01*
X0082693Y0054340D02*
X0082693Y0070291D01*
X0084661Y0070291D02*
X0084661Y0046309D01*
X0084659Y0046122D01*
X0084652Y0045934D01*
X0084641Y0045747D01*
X0084625Y0045561D01*
X0084605Y0045374D01*
X0084581Y0045188D01*
X0084552Y0045003D01*
X0084519Y0044819D01*
X0084481Y0044635D01*
X0084439Y0044453D01*
X0084393Y0044271D01*
X0084342Y0044091D01*
X0084287Y0043911D01*
X0084228Y0043734D01*
X0084165Y0043557D01*
X0084097Y0043383D01*
X0084025Y0043209D01*
X0083949Y0043038D01*
X0083870Y0042868D01*
X0083786Y0042701D01*
X0083698Y0042535D01*
X0083606Y0042372D01*
X0083510Y0042211D01*
X0083411Y0042052D01*
X0083308Y0041896D01*
X0083201Y0041742D01*
X0083090Y0041590D01*
X0082976Y0041442D01*
X0082859Y0041296D01*
X0082738Y0041153D01*
X0082613Y0041012D01*
X0082486Y0040875D01*
X0082355Y0040741D01*
X0086630Y0038277D02*
X0086630Y0070291D01*
X0088598Y0070291D02*
X0088598Y0030246D01*
X0088596Y0030059D01*
X0088589Y0029871D01*
X0088578Y0029684D01*
X0088562Y0029498D01*
X0088542Y0029311D01*
X0088518Y0029125D01*
X0088489Y0028940D01*
X0088456Y0028756D01*
X0088418Y0028572D01*
X0088376Y0028390D01*
X0088330Y0028208D01*
X0088279Y0028028D01*
X0088224Y0027848D01*
X0088165Y0027671D01*
X0088102Y0027494D01*
X0088034Y0027320D01*
X0087962Y0027146D01*
X0087886Y0026975D01*
X0087807Y0026805D01*
X0087723Y0026638D01*
X0087635Y0026472D01*
X0087543Y0026309D01*
X0087447Y0026148D01*
X0087348Y0025989D01*
X0087245Y0025833D01*
X0087138Y0025679D01*
X0087027Y0025527D01*
X0086913Y0025379D01*
X0086796Y0025233D01*
X0086675Y0025090D01*
X0086550Y0024949D01*
X0086423Y0024812D01*
X0086292Y0024678D01*
X0078520Y0070167D02*
X0078520Y0070291D01*
X0070291Y0098441D02*
X0030246Y0098441D01*
X0030059Y0098443D01*
X0029871Y0098450D01*
X0029684Y0098461D01*
X0029498Y0098477D01*
X0029311Y0098497D01*
X0029125Y0098521D01*
X0028940Y0098550D01*
X0028756Y0098583D01*
X0028572Y0098621D01*
X0028390Y0098663D01*
X0028208Y0098709D01*
X0028028Y0098760D01*
X0027848Y0098815D01*
X0027671Y0098874D01*
X0027494Y0098937D01*
X0027320Y0099005D01*
X0027146Y0099077D01*
X0026975Y0099153D01*
X0026805Y0099232D01*
X0026638Y0099316D01*
X0026472Y0099404D01*
X0026309Y0099496D01*
X0026148Y0099592D01*
X0025989Y0099691D01*
X0025833Y0099794D01*
X0025679Y0099901D01*
X0025527Y0100012D01*
X0025379Y0100126D01*
X0025233Y0100243D01*
X0025090Y0100364D01*
X0024949Y0100489D01*
X0024812Y0100616D01*
X0024678Y0100747D01*
X0038277Y0100409D02*
X0070291Y0100409D01*
X0070291Y0102378D02*
X0046309Y0102378D01*
X0046122Y0102380D01*
X0045934Y0102387D01*
X0045747Y0102398D01*
X0045561Y0102414D01*
X0045374Y0102434D01*
X0045188Y0102458D01*
X0045003Y0102487D01*
X0044819Y0102520D01*
X0044635Y0102558D01*
X0044453Y0102600D01*
X0044271Y0102646D01*
X0044091Y0102697D01*
X0043911Y0102752D01*
X0043734Y0102811D01*
X0043557Y0102874D01*
X0043383Y0102942D01*
X0043209Y0103014D01*
X0043038Y0103090D01*
X0042868Y0103169D01*
X0042701Y0103253D01*
X0042535Y0103341D01*
X0042372Y0103433D01*
X0042211Y0103529D01*
X0042052Y0103628D01*
X0041896Y0103731D01*
X0041742Y0103838D01*
X0041590Y0103949D01*
X0041442Y0104063D01*
X0041296Y0104180D01*
X0041153Y0104301D01*
X0041012Y0104426D01*
X0040875Y0104553D01*
X0040741Y0104684D01*
X0054340Y0104346D02*
X0070291Y0104346D01*
X0070291Y0106315D02*
X0062372Y0106315D01*
X0070167Y0108520D02*
X0070291Y0108520D01*
X0062372Y0106315D02*
X0062185Y0106317D01*
X0061997Y0106324D01*
X0061810Y0106335D01*
X0061624Y0106351D01*
X0061437Y0106371D01*
X0061251Y0106395D01*
X0061066Y0106424D01*
X0060882Y0106457D01*
X0060698Y0106495D01*
X0060516Y0106537D01*
X0060334Y0106583D01*
X0060154Y0106634D01*
X0059974Y0106689D01*
X0059797Y0106748D01*
X0059620Y0106811D01*
X0059446Y0106879D01*
X0059272Y0106951D01*
X0059101Y0107027D01*
X0058931Y0107106D01*
X0058764Y0107190D01*
X0058598Y0107278D01*
X0058435Y0107370D01*
X0058274Y0107466D01*
X0058115Y0107565D01*
X0057959Y0107668D01*
X0057805Y0107775D01*
X0057653Y0107886D01*
X0057505Y0108000D01*
X0057359Y0108117D01*
X0057216Y0108238D01*
X0057075Y0108363D01*
X0056938Y0108490D01*
X0056804Y0108621D01*
X0098441Y0116748D02*
X0098441Y0156794D01*
X0098443Y0156981D01*
X0098450Y0157169D01*
X0098461Y0157356D01*
X0098477Y0157542D01*
X0098497Y0157729D01*
X0098521Y0157915D01*
X0098550Y0158100D01*
X0098583Y0158284D01*
X0098621Y0158468D01*
X0098663Y0158650D01*
X0098709Y0158832D01*
X0098760Y0159012D01*
X0098815Y0159192D01*
X0098874Y0159369D01*
X0098937Y0159546D01*
X0099005Y0159720D01*
X0099077Y0159894D01*
X0099153Y0160065D01*
X0099232Y0160235D01*
X0099316Y0160402D01*
X0099404Y0160568D01*
X0099496Y0160731D01*
X0099592Y0160892D01*
X0099691Y0161051D01*
X0099794Y0161207D01*
X0099901Y0161361D01*
X0100012Y0161513D01*
X0100126Y0161661D01*
X0100243Y0161807D01*
X0100364Y0161950D01*
X0100489Y0162091D01*
X0100616Y0162228D01*
X0100747Y0162362D01*
X0100409Y0148762D02*
X0100409Y0116748D01*
X0102378Y0116748D02*
X0102378Y0140731D01*
X0102380Y0140918D01*
X0102387Y0141106D01*
X0102398Y0141293D01*
X0102414Y0141479D01*
X0102434Y0141666D01*
X0102458Y0141852D01*
X0102487Y0142037D01*
X0102520Y0142221D01*
X0102558Y0142405D01*
X0102600Y0142587D01*
X0102646Y0142769D01*
X0102697Y0142949D01*
X0102752Y0143129D01*
X0102811Y0143306D01*
X0102874Y0143483D01*
X0102942Y0143657D01*
X0103014Y0143831D01*
X0103090Y0144002D01*
X0103169Y0144172D01*
X0103253Y0144339D01*
X0103341Y0144505D01*
X0103433Y0144668D01*
X0103529Y0144829D01*
X0103628Y0144988D01*
X0103731Y0145144D01*
X0103838Y0145298D01*
X0103949Y0145450D01*
X0104063Y0145598D01*
X0104180Y0145744D01*
X0104301Y0145887D01*
X0104426Y0146028D01*
X0104553Y0146165D01*
X0104684Y0146299D01*
X0104346Y0132699D02*
X0104346Y0116748D01*
X0106315Y0116748D02*
X0106315Y0124668D01*
X0108520Y0116872D02*
X0108520Y0116748D01*
X0106315Y0124668D02*
X0106317Y0124855D01*
X0106324Y0125043D01*
X0106335Y0125230D01*
X0106351Y0125416D01*
X0106371Y0125603D01*
X0106395Y0125789D01*
X0106424Y0125974D01*
X0106457Y0126158D01*
X0106495Y0126342D01*
X0106537Y0126524D01*
X0106583Y0126706D01*
X0106634Y0126886D01*
X0106689Y0127066D01*
X0106748Y0127243D01*
X0106811Y0127420D01*
X0106879Y0127594D01*
X0106951Y0127768D01*
X0107027Y0127939D01*
X0107106Y0128109D01*
X0107190Y0128276D01*
X0107278Y0128442D01*
X0107370Y0128605D01*
X0107466Y0128766D01*
X0107565Y0128925D01*
X0107668Y0129081D01*
X0107775Y0129235D01*
X0107886Y0129387D01*
X0108000Y0129535D01*
X0108117Y0129681D01*
X0108238Y0129824D01*
X0108363Y0129965D01*
X0108490Y0130102D01*
X0108621Y0130236D01*
X0116748Y0088598D02*
X0156794Y0088598D01*
X0156981Y0088596D01*
X0157169Y0088589D01*
X0157356Y0088578D01*
X0157542Y0088562D01*
X0157729Y0088542D01*
X0157915Y0088518D01*
X0158100Y0088489D01*
X0158284Y0088456D01*
X0158468Y0088418D01*
X0158650Y0088376D01*
X0158832Y0088330D01*
X0159012Y0088279D01*
X0159192Y0088224D01*
X0159369Y0088165D01*
X0159546Y0088102D01*
X0159720Y0088034D01*
X0159894Y0087962D01*
X0160065Y0087886D01*
X0160235Y0087807D01*
X0160402Y0087723D01*
X0160568Y0087635D01*
X0160731Y0087543D01*
X0160892Y0087447D01*
X0161051Y0087348D01*
X0161207Y0087245D01*
X0161361Y0087138D01*
X0161513Y0087027D01*
X0161661Y0086913D01*
X0161807Y0086796D01*
X0161950Y0086675D01*
X0162091Y0086550D01*
X0162228Y0086423D01*
X0162362Y0086292D01*
X0148762Y0086630D02*
X0116748Y0086630D01*
X0116748Y0084661D02*
X0140731Y0084661D01*
X0140918Y0084659D01*
X0141106Y0084652D01*
X0141293Y0084641D01*
X0141479Y0084625D01*
X0141666Y0084605D01*
X0141852Y0084581D01*
X0142037Y0084552D01*
X0142221Y0084519D01*
X0142405Y0084481D01*
X0142587Y0084439D01*
X0142769Y0084393D01*
X0142949Y0084342D01*
X0143129Y0084287D01*
X0143306Y0084228D01*
X0143483Y0084165D01*
X0143657Y0084097D01*
X0143831Y0084025D01*
X0144002Y0083949D01*
X0144172Y0083870D01*
X0144339Y0083786D01*
X0144505Y0083698D01*
X0144668Y0083606D01*
X0144829Y0083510D01*
X0144988Y0083411D01*
X0145144Y0083308D01*
X0145298Y0083201D01*
X0145450Y0083090D01*
X0145598Y0082976D01*
X0145744Y0082859D01*
X0145887Y0082738D01*
X0146028Y0082613D01*
X0146165Y0082486D01*
X0146299Y0082355D01*
X0132699Y0082693D02*
X0116748Y0082693D01*
X0116748Y0080724D02*
X0124668Y0080724D01*
X0116872Y0078520D02*
X0116748Y0078520D01*
X0124668Y0080724D02*
X0124855Y0080722D01*
X0125043Y0080715D01*
X0125230Y0080704D01*
X0125416Y0080688D01*
X0125603Y0080668D01*
X0125789Y0080644D01*
X0125974Y0080615D01*
X0126158Y0080582D01*
X0126342Y0080544D01*
X0126524Y0080502D01*
X0126706Y0080456D01*
X0126886Y0080405D01*
X0127066Y0080350D01*
X0127243Y0080291D01*
X0127420Y0080228D01*
X0127594Y0080160D01*
X0127768Y0080088D01*
X0127939Y0080012D01*
X0128109Y0079933D01*
X0128276Y0079849D01*
X0128442Y0079761D01*
X0128605Y0079669D01*
X0128766Y0079573D01*
X0128925Y0079474D01*
X0129081Y0079371D01*
X0129235Y0079264D01*
X0129387Y0079153D01*
X0129535Y0079039D01*
X0129681Y0078922D01*
X0129824Y0078801D01*
X0129965Y0078676D01*
X0130102Y0078549D01*
X0130236Y0078418D01*
M02*
